<svg xmlns="http://www.w3.org/2000/svg" width="18.593" height="24" viewBox="0 0 18.593 24"><defs><style>.a{fill:#f6f418;fill-rule:evenodd;}</style></defs><g transform="translate(-136.238 150.527)"><g transform="translate(136.238 -150.527)"><path class="a" d="M147.79-145.594H147.1v-.12c.188,0,.308-.037.224-.2-.127-.249.424-.236.5-.182.144.1.049.372-.041.505Zm-.94.167h.834c-.092.14-.352.613-.52.613A1.7,1.7,0,0,1,146.85-145.427Zm2.708-1a.491.491,0,0,1-.137.048c-.262.371-.1.328-.567.638a3.436,3.436,0,0,0,.165,1.24.046.046,0,0,1-.006.038.046.046,0,0,1-.031.022c-.112.024-.273.065-.366.083a2.381,2.381,0,0,1,0,.634,3.268,3.268,0,0,1-1.292,1.359c-.324.064-.686-.222-1.251-.47-.156-.068-.679-.412-.953-.5-.227-.076-.455.477-.173.626.131.069.341.162.407.334a4.7,4.7,0,0,1-.435,2.865c-.192,0-.353-.178-.5-.132-.255.139-.093.917,0,1.053,1.566,1.611,1.38,2.8,2.045,3.694.3,0,.1.321.334.7a1.428,1.428,0,0,1-.051.648v.486l-.051.152v.425c-.046.207-.1.485-.141.678-.093.408.266.725.05,1.113,0,.239,0,.191-.142.385a7.785,7.785,0,0,0,0,1.427,4.266,4.266,0,0,0,.931,1.083c.421.187,1.041.147.84.81-1.232.378-2.018-.213-2.674-.223l-.031.113a2.789,2.789,0,0,1-.848-.133,10.165,10.165,0,0,1,.182-1.123l.142-.223a14.366,14.366,0,0,0-.061-1.528c-.262-.193-.314-.78-.314-1.1a3.773,3.773,0,0,1-.091-.871,1.608,1.608,0,0,1-.041-.567c.039-.13.186-.187.223-.294v-.364c.069-.383.048-.56-.182-.789-.576.008-.655.035-.972-.456-.1-.152-.9-1.424-.982-1.458-.67-.293-.537-.179-.83-.7a.685.685,0,0,0-.348.3,11.284,11.284,0,0,0-.786,1.931c-.068.228,0,.48-.1.668-.074.136-.313.18-.365.273-.235.423-.059.39-.506.688a2.017,2.017,0,0,0-.142.385l-.1.142c-.075.161.08.456.051.557a7.344,7.344,0,0,1-.283.779c-.2.486-.178,1.133-.385,1.432-.1.15-.355,0-.546.127-.011.1-.315.8-.375.992v1.1c.057.186.214.363.167.6-.05.251-.921.247-1.395.179-.317-.046-.412-.279-.406-.549.006-.319.65-2.388.611-2.526-.489-.55.131-1.117.314-1.63.089-.25.034-.6.131-.83l.516-.941c.314-.3.174-.311.344-.577.147-.23.326-.386.223-.739-.209-.71.243-1.717.273-2.46-.08-.084-.352-.058-.386-.284a2.133,2.133,0,0,1,.325-1.355c.067-.034.143,0,.2-.04,0-.346-.344-2.271-.083-2.369.161-.06.531-.092.6-.124,0-.082-.06-.257-.129-.267-.115-.016-.35-.06-.538-.1-.575-.133-.043-2.4-.036-2.411.158-.209.893.073.982-.284.246-.313-.19-1.519.649-3,.283-.5.825-1.007,1.457-.793.212.072.083.376.456.051a1.348,1.348,0,0,0-.132-.506c-.619-1.846,1.478-2.846,2.945-1.792a1.491,1.491,0,0,1,.385.192c.081.418.5,1.162.081,1.65a1.536,1.536,0,0,0-.506.223,1.481,1.481,0,0,0,.051.425c.028.091.081.127-.056.182-.017.007-.01.063,0,.085a1.733,1.733,0,0,0,.937-.156h.274v-.345h.131v-.27h.131v.467h.341v.148h5.06v.263h.224v-.961h.188v.782h.431v.446h1.339v-.133h.223v.058h.633v.372H154.2v.058h-.223v-.133h-1.339v.133h-.59v-.09h-.253v.27h-2.235" transform="translate(-136.238 150.527)"/></g></g></svg>