<svg xmlns="http://www.w3.org/2000/svg" width="18.043" height="14.176" viewBox="0 0 18.043 14.176"><defs><style>.a{fill:#112a3d;}</style></defs><g transform="translate(0 -54.82)"><g transform="translate(0 54.82)"><path class="a" d="M1.732,59.19q.342.242,2.064,1.435t2.638,1.837q.1.071.428.307t.544.383q.217.146.524.327a3.037,3.037,0,0,0,.579.272,1.6,1.6,0,0,0,.5.091h.02a1.6,1.6,0,0,0,.5-.091,3.04,3.04,0,0,0,.579-.272q.307-.181.524-.327t.544-.383q.327-.237.428-.307l4.712-3.272a4.783,4.783,0,0,0,1.228-1.238,2.659,2.659,0,0,0,.493-1.52,1.625,1.625,0,0,0-1.611-1.611H1.611a1.438,1.438,0,0,0-1.193.523A2.032,2.032,0,0,0,0,56.652a2.352,2.352,0,0,0,.554,1.374A5,5,0,0,0,1.732,59.19Z" transform="translate(0 -54.82)"/><path class="a" d="M17.036,185.313q-3.3,2.235-5.014,3.474-.574.423-.931.659a5.747,5.747,0,0,1-.951.483,2.9,2.9,0,0,1-1.107.247h-.02a2.9,2.9,0,0,1-1.108-.247,5.75,5.75,0,0,1-.951-.483q-.357-.236-.931-.659-1.359-1-5-3.474A5.333,5.333,0,0,1,0,184.437v7.994a1.551,1.551,0,0,0,.473,1.138,1.551,1.551,0,0,0,1.138.473H16.432a1.616,1.616,0,0,0,1.611-1.611v-7.994A5.552,5.552,0,0,1,17.036,185.313Z" transform="translate(0 -179.866)"/></g></g></svg>