<svg xmlns="http://www.w3.org/2000/svg" xmlns:xlink="http://www.w3.org/1999/xlink" width="1440" height="960" viewBox="0 0 1440 960"><defs><style>.a{fill:url(#a);}.b{opacity:0.34;mix-blend-mode:overlay;}.b,.e,.f{isolation:isolate;}.c{opacity:0.96;}.d{opacity:0.6;clip-path:url(#c);}.e,.f{mix-blend-mode:multiply;}.e{fill:url(#d);}.f{fill:url(#e);}.g{fill:url(#f);}.h{fill:#fff;}.i{fill:url(#g);}.j{fill:url(#h);}.k{fill:url(#i);}.l{fill:url(#n);}.m{fill:url(#o);}.n{fill:url(#q);}.o{fill:url(#s);}.p{fill:url(#u);}.q{fill:url(#x);}.r{fill:url(#y);}.s{fill:url(#ar);}.t{fill:url(#as);}.u{fill:url(#aw);}.v{fill:url(#ax);}.w{fill:url(#ba);}.x{fill:url(#bc);}</style><linearGradient id="a" x1="0.641" y1="1.315" x2="0.361" y2="-0.306" gradientUnits="objectBoundingBox"><stop offset="0" stop-color="#fbfbfb"/><stop offset="0.419" stop-color="#f5f4f5"/><stop offset="0.989" stop-color="#e4e3e4"/><stop offset="1" stop-color="#e4e3e4"/></linearGradient><clipPath id="c"><rect class="a" width="1440" height="960" transform="translate(0 -0.002)"/></clipPath><radialGradient id="d" cx="0.5" cy="0.274" r="0.726" gradientTransform="translate(0.156) scale(0.689 1)" gradientUnits="objectBoundingBox"><stop offset="0" stop-color="#b0b0b0"/><stop offset="0.145" stop-color="#bfbfbf"/><stop offset="0.507" stop-color="#e2e2e2"/><stop offset="0.805" stop-color="#f7f7f7"/><stop offset="1" stop-color="#fff"/></radialGradient><radialGradient id="e" cx="0.329" cy="0.543" r="0.543" gradientTransform="translate(-0.119) scale(1.237 1)" xlink:href="#d"/><linearGradient id="f" x1="-3.505" y1="1.512" x2="1.416" y2="0.091" xlink:href="#a"/><linearGradient id="g" x1="0.155" y1="1.004" x2="0.98" y2="-0.893" xlink:href="#a"/><linearGradient id="h" x1="0.139" y1="0.92" x2="0.892" y2="0.03" xlink:href="#a"/><linearGradient id="i" x1="0.183" y1="0.976" x2="0.969" y2="-0.922" xlink:href="#a"/><linearGradient id="n" x1="-3.505" y1="1.512" x2="1.416" y2="0.091" xlink:href="#a"/><linearGradient id="o" x1="0.075" y1="0.92" x2="0.882" y2="0.049" xlink:href="#a"/><linearGradient id="q" x1="0.136" y1="0.92" x2="0.89" y2="0.049" xlink:href="#a"/><linearGradient id="s" x1="0.136" y1="0.92" x2="0.89" y2="0.049" xlink:href="#a"/><linearGradient id="u" x1="0.136" y1="0.92" x2="0.89" y2="0.049" xlink:href="#a"/><linearGradient id="x" x1="0.15" y1="0.92" x2="0.979" y2="0.049" xlink:href="#a"/><linearGradient id="y" x1="-0.382" y1="0.899" x2="5.477" y2="-0.793" xlink:href="#a"/><linearGradient id="ar" x1="0.006" y1="1.908" x2="0.838" y2="-0.059" xlink:href="#a"/><linearGradient id="as" x1="0.133" y1="0.952" x2="0.887" y2="0.047" xlink:href="#a"/><linearGradient id="aw" x1="0.045" y1="1.908" x2="0.845" y2="-0.059" xlink:href="#a"/><linearGradient id="ax" x1="0.133" y1="0.952" x2="0.887" y2="0.047" xlink:href="#a"/><linearGradient id="ba" x1="0.146" y1="0.952" x2="0.975" y2="0.047" xlink:href="#a"/><linearGradient id="bc" x1="-1.465" y1="1.923" x2="6.087" y2="-2.437" xlink:href="#a"/></defs><g class="b" transform="translate(375.333 -62.665)"><g class="c" transform="translate(-375.333 62.667)"><rect class="a" width="1440" height="960" transform="translate(0 -0.002)"/><g class="d"><g transform="translate(-171.49 -58.33)"><path class="e" d="M-318.145,45.168A332.223,332.223,0,0,0-342.665,170.8c0,184.037,149.193,333.23,333.23,333.23S323.8,354.838,323.8,170.8A332.224,332.224,0,0,0,299.275,45.168Z" transform="translate(623.048 -45.168)"/><path class="f" d="M53.163,986.906c129.543-82.98,215.407-228.19,215.407-393.45,0-257.87-209.043-466.913-466.91-466.913A464.708,464.708,0,0,0-426.78,186.19V986.906Z" transform="translate(426.78 144.707)"/><g transform="translate(17.779 6.667)"><g transform="translate(0 31.353)"><path class="g" d="M-421.446,56.574V168.833l32.406-56.13Z" transform="translate(421.446 -56.574)"/><path class="h" d="M-418.826,66.357l26.757,46.347-26.757,46.343V66.357m-2.62-9.783v112.26l32.4-56.13-32.4-56.13Z" transform="translate(421.447 -56.573)"/></g><path class="i" d="M-421.446,47.169V63.788l38.923,67.42h105.765l48.522-84.04Z" transform="translate(421.446 -47.167)"/><path class="h" d="M-232.779,49.791l-45.49,78.8h-102.74l-37.817-65.5V49.791h186.047m4.543-2.623h-193.21v16.62l38.923,67.42h105.767l48.52-84.04Z" transform="translate(421.447 -47.168)"/><g transform="translate(151.208)"><path class="j" d="M-325.576,47.169l-50.508,87.48,52.881,91.6h105.768l52.884-91.6-50.511-87.48Z" transform="translate(376.084 -47.167)"/><path class="h" d="M-216.574,49.791l48.993,84.86-51.37,88.973H-321.687l-51.37-88.973,49-84.86h107.487m1.513-2.623H-325.577l-50.507,87.483,52.883,91.593h105.767l52.883-91.593-50.51-87.483Z" transform="translate(376.084 -47.168)"/></g><g transform="translate(320.736)"><path class="k" d="M-325.225,47.169l48.519,84.04h105.768l48.519-84.04Z" transform="translate(325.225 -47.167)"/><path class="h" d="M-126.958,49.791l-45.5,78.8H-275.192l-45.493-78.8h193.727m4.537-2.623h-202.8l48.517,84.04h105.77l48.517-84.04Z" transform="translate(325.227 -47.168)"/></g><g transform="translate(481.54)"><path class="j" d="M-226.477,47.169l-50.508,87.48,52.884,91.6h105.765l52.881-91.6-50.5-87.48Z" transform="translate(276.984 -47.167)"/><path class="h" d="M-117.474,49.791l48.993,84.86-51.37,88.973H-222.587l-51.37-88.973,48.993-84.86h107.49m1.513-2.623H-226.477l-50.507,87.483,52.883,91.593h105.763l52.883-91.593-50.507-87.483Z" transform="translate(276.985 -47.168)"/></g><g transform="translate(651.071)"><path class="k" d="M-226.125,47.169l48.519,84.04H-71.841l48.519-84.04Z" transform="translate(226.125 -47.167)"/><path class="h" d="M-27.862,49.791l-45.493,78.8H-176.092l-45.493-78.8H-27.862m4.54-2.623h-202.8l48.52,84.04H-71.842l48.52-84.04Z" transform="translate(226.125 -47.168)"/></g><g transform="translate(811.874)"><path class="j" d="M-127.379,47.169l-50.5,87.48,52.881,91.6H-19.238l52.884-91.6-50.508-87.48Z" transform="translate(177.884 -47.167)"/><path class="h" d="M-18.374,49.791l48.993,84.86-51.37,88.973H-123.487l-51.37-88.973,48.993-84.86h107.49m1.513-2.623H-127.377l-50.507,87.483L-125,226.245H-19.234l52.88-91.593L-16.861,47.168Z" transform="translate(177.884 -47.168)"/></g><g transform="translate(0 222.189)"><path class="g" d="M-421.446,113.825V226.082l32.406-56.128Z" transform="translate(421.446 -113.825)"/><path class="h" d="M-418.826,123.608l26.757,46.347L-418.826,216.3v-92.69m-2.62-9.783V226.082l32.4-56.127-32.4-56.13Z" transform="translate(421.447 -113.824)"/></g><g transform="translate(0 412.37)"><path class="l" d="M-421.446,170.879V283.138l32.406-56.126Z" transform="translate(421.446 -170.879)"/><path class="h" d="M-418.826,180.666l26.757,46.347-26.757,46.343v-92.69m-2.62-9.787v112.26l32.4-56.127-32.4-56.133Z" transform="translate(421.447 -170.879)"/></g><g transform="translate(0 91.687)"><path class="m" d="M-276.759,74.674H-382.524l-38.923,67.42v48.35l38.923,67.42h105.765l52.884-91.595Z" transform="translate(421.446 -74.673)"/><path class="h" d="M-278.269,77.3l51.367,88.973-51.367,88.973h-102.74l-37.817-65.5V142.8l37.817-65.5h102.74m1.513-2.623H-382.523l-38.923,67.42v48.35l38.923,67.42h105.767l52.88-91.593-52.88-91.6Z" transform="translate(421.447 -74.674)"/></g><g transform="translate(0 281.87)"><path class="m" d="M-276.759,131.729H-382.524l-38.923,67.42V247.5l38.923,67.419h105.765l52.884-91.595Z" transform="translate(421.446 -131.729)"/><path class="h" d="M-278.269,134.349l51.367,88.973L-278.269,312.3h-102.74l-37.817-65.5V199.852l37.817-65.5h102.74m1.513-2.62H-382.523l-38.923,67.42V247.5l38.923,67.42h105.767l52.88-91.6-52.88-91.593Z" transform="translate(421.447 -131.729)"/></g><g transform="translate(151.208 186.723)"><path class="n" d="M-217.438,103.185H-323.2l-52.881,91.6,52.881,91.6h105.765l52.884-91.6Z" transform="translate(376.084 -103.185)"/><path class="h" d="M-218.947,105.808l51.367,88.973-51.367,88.97h-102.74l-51.37-88.97,51.37-88.973h102.74m1.51-2.623H-323.2l-52.883,91.6,52.883,91.6h105.763l52.887-91.6-52.887-91.6Z" transform="translate(376.084 -103.185)"/></g><g transform="translate(151.208 376.907)"><path class="n" d="M-217.438,160.24H-323.2l-52.881,91.6L-323.2,343.43h105.765l52.884-91.595Z" transform="translate(376.084 -160.239)"/><path class="h" d="M-218.947,162.86l51.367,88.977-51.367,88.97h-102.74l-51.37-88.97,51.37-88.977h102.74m1.51-2.62H-323.2l-52.883,91.6L-323.2,343.43h105.763l52.887-91.593-52.887-91.6Z" transform="translate(376.084 -160.24)"/></g><g transform="translate(316.374 91.687)"><path class="o" d="M-167.885,74.674H-273.653l-52.881,91.6,52.881,91.595h105.768L-115,166.269Z" transform="translate(326.534 -74.673)"/><path class="h" d="M-169.4,77.3l51.37,88.973-51.37,88.973h-102.74l-51.367-88.973L-272.141,77.3H-169.4m1.517-2.623h-105.77l-52.88,91.6,52.88,91.593h105.77L-115,166.271l-52.88-91.6Z" transform="translate(326.534 -74.674)"/></g><g transform="translate(316.374 281.87)"><path class="o" d="M-167.885,131.729H-273.653l-52.881,91.594,52.881,91.595h105.768L-115,223.323Z" transform="translate(326.534 -131.729)"/><path class="h" d="M-169.4,134.349l51.37,88.973L-169.4,312.3h-102.74l-51.367-88.973,51.367-88.973H-169.4m1.517-2.62h-105.77l-52.88,91.593,52.88,91.6h105.77l52.88-91.6-52.88-91.593Z" transform="translate(326.534 -131.729)"/></g><g transform="translate(481.54 186.723)"><path class="p" d="M-118.335,103.185H-224.1l-52.884,91.6,52.884,91.6h105.765l52.881-91.6Z" transform="translate(276.984 -103.185)"/><path class="h" d="M-119.851,105.808l51.37,88.973-51.37,88.97H-222.587l-51.37-88.97,51.37-88.973h102.737m1.513-2.623H-224.1l-52.883,91.6,52.883,91.6h105.763l52.883-91.6-52.883-91.6Z" transform="translate(276.985 -103.185)"/></g><g transform="translate(481.54 376.907)"><path class="p" d="M-118.335,160.24H-224.1l-52.884,91.6L-224.1,343.43h105.765l52.881-91.595Z" transform="translate(276.984 -160.239)"/><path class="h" d="M-119.851,162.86l51.37,88.977-51.37,88.97H-222.587l-51.37-88.97,51.37-88.977h102.737m1.513-2.62H-224.1l-52.883,91.6L-224.1,343.43h105.763l52.883-91.593-52.883-91.6Z" transform="translate(276.985 -160.24)"/></g><g transform="translate(646.706 91.687)"><path class="n" d="M-68.786,74.674H-174.551l-52.884,91.6,52.884,91.595H-68.786L-15.9,166.269Z" transform="translate(227.435 -74.673)"/><path class="h" d="M-70.3,77.3l51.37,88.973L-70.3,255.244H-173.037l-51.37-88.973,51.37-88.973H-70.3m1.513-2.623H-174.551l-52.883,91.6,52.883,91.593H-68.787L-15.9,166.271l-52.883-91.6Z" transform="translate(227.436 -74.674)"/></g><g transform="translate(1472.539 376.907)"><path class="q" d="M212.692,218.658,178.965,160.24H73.2l-52.881,91.6L73.2,343.43H178.965l33.727-58.421Z" transform="translate(-20.315 -160.239)"/><path class="h" d="M177.449,162.86l32.62,56.5V284.31l-32.62,56.5H74.713l-51.37-88.97,51.37-88.977H177.449m1.513-2.62H73.2l-52.88,91.6L73.2,343.43H178.963l33.727-58.42V218.66l-33.727-58.42Z" transform="translate(-20.314 -160.24)"/></g><g transform="translate(1637.704 326.333)"><path class="r" d="M97.076,145.068,69.865,192.2l27.21,47.129Z" transform="translate(-69.864 -145.067)"/><path class="h" d="M94.455,154.855v74.687L72.9,192.2l21.56-37.343m2.62-9.787L69.865,192.2l27.21,47.13v-94.26Z" transform="translate(-69.865 -145.068)"/></g><g transform="translate(0 603.21)"><path class="l" d="M-421.446,228.131V340.39l32.406-56.133Z" transform="translate(421.446 -228.131)"/><path class="h" d="M-418.826,237.914l26.757,46.343L-418.826,330.6v-92.69m-2.62-9.783v112.26l32.4-56.133-32.4-56.127Z" transform="translate(421.447 -228.131)"/></g><g transform="translate(0 793.392)"><path class="l" d="M-421.446,285.186V397.445l32.406-56.133Z" transform="translate(421.446 -285.186)"/><path class="h" d="M-418.826,294.969l26.757,46.34-26.757,46.35v-92.69m-2.62-9.783V397.443l32.4-56.133-32.4-56.123Z" transform="translate(421.447 -285.185)"/></g><g transform="translate(0 472.707)"><path class="m" d="M-276.759,188.98H-382.524L-421.446,256.4v48.353l38.923,67.422h105.765l52.884-91.6Z" transform="translate(421.446 -188.979)"/><path class="h" d="M-278.269,191.6l51.367,88.977-51.367,88.97h-102.74l-37.817-65.5V257.1l37.817-65.5h102.74m1.513-2.62H-382.523L-421.446,256.4V304.75l38.923,67.423h105.767l52.88-91.6-52.88-91.6Z" transform="translate(421.447 -188.98)"/></g><g transform="translate(0 662.89)"><path class="m" d="M-276.759,246.035H-382.524l-38.923,67.415V361.8l38.923,67.422h105.765l52.884-91.595Z" transform="translate(421.446 -246.035)"/><path class="h" d="M-278.269,248.652l51.367,88.98-51.367,88.97h-102.74l-37.817-65.5V314.155l37.817-65.5h102.74m1.513-2.617H-382.523l-38.923,67.417V361.8l38.923,67.42h105.767l52.88-91.593-52.88-91.6Z" transform="translate(421.447 -246.035)"/></g><g transform="translate(151.208 567.74)"><path class="n" d="M-217.438,217.49H-323.2l-52.881,91.595,52.881,91.6h105.765l52.884-91.6Z" transform="translate(376.084 -217.489)"/><path class="h" d="M-218.947,220.113l51.367,88.973-51.367,88.977h-102.74l-51.37-88.977,51.37-88.973h102.74m1.51-2.623H-323.2l-52.883,91.6L-323.2,400.68h105.763l52.887-91.593-52.887-91.6Z" transform="translate(376.084 -217.49)"/></g><g transform="translate(151.208 757.923)"><path class="n" d="M-217.438,274.545H-323.2l-52.881,91.595,52.881,91.595h105.765l52.884-91.595Z" transform="translate(376.084 -274.545)"/><path class="h" d="M-218.947,277.168l51.367,88.97-51.367,88.98h-102.74l-51.37-88.98,51.37-88.97h102.74m1.51-2.623H-323.2l-52.883,91.593,52.883,91.6h105.763l52.887-91.6-52.887-91.593Z" transform="translate(376.084 -274.545)"/></g><g transform="translate(316.374 472.707)"><path class="o" d="M-167.885,188.98H-273.653l-52.881,91.595,52.881,91.6h105.768l52.881-91.6Z" transform="translate(326.534 -188.979)"/><path class="h" d="M-169.4,191.6l51.37,88.977-51.37,88.97h-102.74l-51.367-88.97,51.367-88.977H-169.4m1.517-2.62h-105.77l-52.88,91.6,52.88,91.6h105.77l52.88-91.6-52.88-91.6Z" transform="translate(326.534 -188.98)"/></g><g transform="translate(316.374 662.89)"><path class="o" d="M-167.885,246.035H-273.653l-52.881,91.6,52.881,91.595h105.768L-115,337.63Z" transform="translate(326.534 -246.035)"/><path class="h" d="M-169.4,248.652l51.37,88.98L-169.4,426.6h-102.74l-51.367-88.97,51.367-88.98H-169.4m1.517-2.617h-105.77l-52.88,91.6,52.88,91.593h105.77L-115,337.632l-52.88-91.6Z" transform="translate(326.534 -246.035)"/></g><g transform="translate(481.54 567.74)"><path class="p" d="M-118.335,217.49H-224.1l-52.884,91.595,52.884,91.6h105.765l52.881-91.6Z" transform="translate(276.984 -217.489)"/><path class="h" d="M-119.851,220.113l51.37,88.973-51.37,88.977H-222.587l-51.37-88.977,51.37-88.973h102.737m1.513-2.623H-224.1l-52.883,91.6L-224.1,400.68h105.763l52.883-91.593-52.883-91.6Z" transform="translate(276.985 -217.49)"/></g><g transform="translate(1142.207 757.923)"><path class="n" d="M79.862,274.545H-25.9L-78.784,366.14-25.9,457.735H79.862l52.884-91.595Z" transform="translate(78.784 -274.545)"/><path class="h" d="M78.349,277.168l51.37,88.97-51.37,88.98H-24.391l-51.367-88.98,51.367-88.97H78.349m1.513-2.623H-25.9l-52.88,91.593,52.88,91.6H79.863l52.883-91.6L79.863,274.545Z" transform="translate(78.784 -274.545)"/></g><g transform="translate(1307.373 472.707)"><path class="n" d="M129.411,188.98H23.646l-52.881,91.595,52.881,91.6H129.411l52.884-91.6Z" transform="translate(29.234 -188.979)"/><path class="h" d="M127.9,191.6l51.37,88.977-51.37,88.97H25.163l-51.37-88.97L25.163,191.6H127.9m1.517-2.62H23.646l-52.88,91.6,52.88,91.6H129.413l52.883-91.6-52.883-91.6Z" transform="translate(29.235 -188.98)"/></g><g transform="translate(1307.373 662.89)"><path class="n" d="M129.411,246.035H23.646l-52.881,91.6,52.881,91.595H129.411L182.3,337.63Z" transform="translate(29.234 -246.035)"/><path class="h" d="M127.9,248.652l51.37,88.98L127.9,426.6H25.163l-51.37-88.97,51.37-88.98H127.9m1.517-2.617H23.646l-52.88,91.6,52.88,91.593H129.413L182.3,337.632l-52.883-91.6Z" transform="translate(29.235 -246.035)"/></g><g transform="translate(1472.539 567.74)"><path class="q" d="M212.692,275.908,178.965,217.49H73.2L20.315,309.085,73.2,400.68H178.965l33.727-58.418Z" transform="translate(-20.315 -217.489)"/><path class="h" d="M177.449,220.113l32.62,56.5V341.56l-32.62,56.5H74.713l-51.37-88.977,51.37-88.973H177.449m1.513-2.623H73.2l-52.88,91.6L73.2,400.68H178.963l33.727-58.417V275.91l-33.727-58.42Z" transform="translate(-20.314 -217.49)"/></g><g transform="translate(1472.539 757.923)"><path class="q" d="M212.692,332.963l-33.727-58.418H73.2L20.315,366.14,73.2,457.735H178.965l33.727-58.418Z" transform="translate(-20.315 -274.545)"/><path class="h" d="M177.449,277.168l32.62,56.5v64.95l-32.62,56.5H74.713l-51.37-88.98,51.37-88.97H177.449m1.513-2.623H73.2l-52.88,91.593,52.88,91.6H178.963l33.727-58.417V332.962l-33.727-58.417Z" transform="translate(-20.314 -274.545)"/></g><g transform="translate(1637.704 517.173)"><path class="r" d="M97.076,202.32l-27.21,47.129,27.21,47.129Z" transform="translate(-69.864 -202.319)"/><path class="h" d="M94.455,212.107v74.687L72.9,249.45l21.56-37.343m2.62-9.787-27.21,47.13,27.21,47.13V202.32Z" transform="translate(-69.865 -202.32)"/></g><g transform="translate(1637.704 707.357)"><path class="r" d="M97.076,259.375,69.865,306.5l27.21,47.129Z" transform="translate(-69.864 -259.375)"/><path class="h" d="M94.455,269.162v74.687L72.9,306.505l21.56-37.343m2.62-9.787-27.21,47.13,27.21,47.127V259.375Z" transform="translate(-69.865 -259.375)"/></g><g transform="translate(0 984.225)"><path class="l" d="M-421.446,342.436V454.695l32.406-56.126Z" transform="translate(421.446 -342.436)"/><path class="h" d="M-418.826,352.219l26.757,46.347-26.757,46.343v-92.69m-2.62-9.783V454.693l32.4-56.127-32.4-56.13Z" transform="translate(421.447 -342.435)"/></g><g transform="translate(0 853.723)"><path class="m" d="M-276.759,303.285H-382.524l-38.923,67.422V419.06l38.923,67.415h105.765l52.884-91.595Z" transform="translate(421.446 -303.285)"/><path class="h" d="M-278.269,305.908l51.367,88.973-51.367,88.977h-102.74l-37.817-65.5V371.412l37.817-65.5h102.74m1.513-2.623H-382.523l-38.923,67.423v48.353l38.923,67.413h105.767l52.88-91.593-52.88-91.6Z" transform="translate(421.447 -303.285)"/></g><g transform="translate(0 1043.906)"><path class="s" d="M-229.972,441.382l-46.787-81.042H-382.524l-38.923,67.422v13.62Z" transform="translate(421.446 -360.34)"/><path class="h" d="M-278.269,362.963l43.757,75.793H-418.826V428.463l37.817-65.5h102.74m1.513-2.623H-382.523l-38.923,67.42v13.62h191.473l-46.783-81.04Z" transform="translate(421.447 -360.34)"/></g><g transform="translate(151.208 948.763)"><path class="t" d="M-213.389,507.982l48.838-84.59L-217.435,331.8H-323.2l-52.881,91.595,48.838,84.59Z" transform="translate(376.084 -331.797)"/><path class="h" d="M-218.951,334.414l51.37,88.977L-214.9,505.357h-110.83l-47.323-81.967,51.37-88.977h102.737m1.517-2.617H-323.2l-52.883,91.593,48.837,84.59h113.86l48.837-84.59L-217.434,331.8Z" transform="translate(376.084 -331.797)"/></g><g transform="translate(316.374 853.723)"><path class="o" d="M-167.885,303.285H-273.653l-52.881,91.6,52.881,91.595h105.768L-115,394.88Z" transform="translate(326.534 -303.285)"/><path class="h" d="M-169.4,305.908l51.37,88.973-51.37,88.977h-102.74l-51.367-88.977,51.367-88.973H-169.4m1.517-2.623h-105.77l-52.88,91.6,52.88,91.593h105.77L-115,394.882l-52.88-91.6Z" transform="translate(326.534 -303.285)"/></g><g transform="translate(811.874 948.763)"><path class="t" d="M-15.191,507.982l48.838-84.59L-19.238,331.8H-125l-52.881,91.595,48.835,84.59Z" transform="translate(177.884 -331.797)"/><path class="h" d="M-20.751,334.414l51.37,88.977L-16.7,505.357h-110.83l-47.323-81.967,51.37-88.977H-20.751m1.517-2.617H-125l-52.883,91.593,48.837,84.59H-15.191l48.837-84.59L-19.234,331.8Z" transform="translate(177.884 -331.797)"/></g><g transform="translate(977.041 853.723)"><path class="n" d="M30.312,303.285H-75.453l-52.881,91.6,52.881,91.595H30.312L83.2,394.88Z" transform="translate(128.334 -303.285)"/><path class="h" d="M28.8,305.908l51.37,88.973L28.8,483.858H-73.941l-51.367-88.977,51.367-88.973H28.8m1.513-2.623H-75.454l-52.88,91.6,52.88,91.593H30.313L83.2,394.882l-52.883-91.6Z" transform="translate(128.334 -303.285)"/></g><g transform="translate(983.134 1043.906)"><path class="u" d="M72.833,441.382,26.046,360.34H-79.719l-46.787,81.042Z" transform="translate(126.506 -360.34)"/><path class="h" d="M24.534,362.963l43.76,75.793h-190.26l43.76-75.793H24.534m1.513-2.623H-79.719l-46.787,81.04H72.834L26.047,360.34Z" transform="translate(126.506 -360.34)"/></g><g transform="translate(1142.207 948.763)"><path class="v" d="M83.908,507.982l48.838-84.59L79.862,331.8H-25.9l-52.881,91.595,48.834,84.59Z" transform="translate(78.784 -331.797)"/><path class="h" d="M78.349,334.414l51.37,88.977L82.393,505.357H-28.437l-47.32-81.967,51.367-88.977H78.349m1.513-2.617H-25.9l-52.88,91.593,48.833,84.59H83.909l48.837-84.59L79.863,331.8Z" transform="translate(78.784 -331.797)"/></g><g transform="translate(1307.373 853.723)"><path class="n" d="M129.411,303.285H23.646l-52.881,91.6,52.881,91.595H129.411L182.3,394.88Z" transform="translate(29.234 -303.285)"/><path class="h" d="M127.9,305.908l51.37,88.973L127.9,483.858H25.163l-51.37-88.977,51.37-88.973H127.9m1.517-2.623H23.646l-52.88,91.6,52.88,91.593H129.413L182.3,394.882l-52.883-91.6Z" transform="translate(29.235 -303.285)"/></g><g transform="translate(1313.468 1043.906)"><path class="u" d="M171.934,441.382l-46.79-81.042H19.378l-46.784,81.042Z" transform="translate(27.408 -360.34)"/><path class="h" d="M123.631,362.963l43.763,75.793H-22.866L20.9,362.963H123.631m1.517-2.623H19.381l-46.787,81.04h199.34l-46.787-81.04Z" transform="translate(27.406 -360.34)"/></g><g transform="translate(1472.539 948.763)"><path class="w" d="M212.692,390.215,178.965,331.8H73.2L20.315,423.392l48.838,84.59H183.007l29.684-51.413Z" transform="translate(-20.315 -331.797)"/><path class="h" d="M177.449,334.414l32.62,56.5v64.95L181.5,505.357H70.666L23.343,423.39l51.37-88.977H177.449m1.513-2.617H73.2L20.316,423.39l48.837,84.59H183.009l29.68-51.41V390.214L178.963,331.8Z" transform="translate(-20.314 -331.797)"/></g><g transform="translate(1637.704 898.19)"><path class="r" d="M97.076,316.625l-27.21,47.129,27.21,47.129Z" transform="translate(-69.864 -316.625)"/><path class="h" d="M94.455,326.412V401.1L72.9,363.755l21.56-37.343m2.62-9.787-27.21,47.13,27.21,47.127V316.625Z" transform="translate(-69.865 -316.625)"/></g><g transform="translate(1643.799 1088.372)"><path class="x" d="M92.81,373.68,71.693,410.255H92.81Z" transform="translate(-71.693 -373.68)"/><path class="h" d="M90.187,383.463V407.63H76.234l13.953-24.167m2.62-9.783L71.694,410.253H92.807V373.68Z" transform="translate(-71.692 -373.679)"/></g></g></g></g></g></g></svg>