<svg xmlns="http://www.w3.org/2000/svg" width="24" height="24" viewBox="0 0 24 24"><defs><style>.a{fill:none;}.b{fill:#fff;}</style></defs><g transform="translate(0.335 0.335)"><rect class="a" width="24" height="24" transform="translate(-0.335 -0.335)"/><path class="b" d="M29.825,59.952l0-.012-1.49-7.694c0-.006,0-.011,0-.017A5.476,5.476,0,0,0,22.95,47.74h0l-8.019.024a5.456,5.456,0,0,0-5.386,4.519l0,.02L8.055,59.94l0,.013a3.281,3.281,0,0,0,5.551,2.89q.02-.02.038-.041l3.712-4.1,3.176-.013L24.236,62.8q.019.022.039.042a3.281,3.281,0,0,0,5.551-2.89ZM16.752,53.961h-.729v.729a.729.729,0,0,1-1.458,0v-.729h-.729a.729.729,0,1,1,0-1.458h.729v-.729a.729.729,0,0,1,1.458,0V52.5h.729a.729.729,0,1,1,0,1.458Zm3.645-.729a.729.729,0,0,1,.729-.729h2.916a.729.729,0,1,1,0,1.458H21.126a.729.729,0,0,1-.729-.729Zm6.514,9.085a1.826,1.826,0,0,1-1.591-.492l-2.835-3.147.466,0a5.468,5.468,0,0,0,4.642-2.584l.8,4.119a1.825,1.825,0,0,1-1.479,2.106Z" transform="translate(-7.274 -43.39)"/></g></svg>