<svg xmlns="http://www.w3.org/2000/svg" xmlns:xlink="http://www.w3.org/1999/xlink" width="132.256" height="78.464" viewBox="0 0 132.256 78.464"><defs><style>.a{fill:#c4590f;}.b{fill:#fa7114;}.c{fill:#fa9652;}.d{fill:#adadad;opacity:0.4;mix-blend-mode:multiply;}.d,.m{isolation:isolate;}.e{fill:#13143b;}.f{fill:#df4931;}.g{fill:#f0b573;}.h{fill:#91ceff;}.i{fill:#ebb46c;}.j{fill:#ffcd94;}.k{fill:#fcdc74;}.l{fill:#1f2060;}.m{mix-blend-mode:lighten;fill:url(#a);}</style><linearGradient id="a" x1="0.244" y1="0.316" x2="0.703" y2="0.724" gradientUnits="objectBoundingBox"><stop offset="0" stop-color="#46b5d1" stop-opacity="0"/><stop offset="0.102" stop-color="#46b5d1" stop-opacity="0.055"/><stop offset="0.285" stop-color="#46b5d1" stop-opacity="0.204"/><stop offset="0.527" stop-color="#46b5d1" stop-opacity="0.443"/><stop offset="0.816" stop-color="#46b5d1" stop-opacity="0.773"/><stop offset="1" stop-color="#46b5d1"/></linearGradient></defs><g transform="translate(1077.684 -184.012)"><g transform="translate(-1077.684 190.361)"><g transform="translate(0 0)"><rect class="a" width="18.894" height="11.982" transform="translate(16.129 10.763)"/><path class="b" d="M-1031.1,241.6c-.764-2.673.382-8.018,1.909-10.309s-.764-7.636-1.909-9.928-2.291-1.145-6.109-4.581-6.491-6.873-9.928-12.219-12.982-5.346-19.091,0-4.2,18.328-7.636,21.382-3.818,4.108-3.818,6.491a17.593,17.593,0,0,0,1.527,5.728c1.528,4.964,7.636,5.346,9.164,11.837,2.058,8.748-1.909,10.309-1.909,13.364s2.673,8.782,2.673,8.782l42-1.383V251.531A17.96,17.96,0,0,1-1031.1,241.6Zm-26.174-20.162c-1.266.317-3.483.95-3.8-.95,0,0-.316-4.116,1.583-6.015s4.432,2.216,5.382,4.116S-1056.009,221.125-1057.276,221.442Zm10.447-2.532c-1.266.316-3.482.949-3.8-.95,0,0-.317-4.116,1.583-6.015s4.432,2.216,5.382,4.116S-1045.562,218.593-1046.828,218.909Z" transform="translate(1077.684 -200.558)"/><g transform="translate(0 0.003)"><path class="a" d="M-1061,250.01c-1.527-6.491-7.636-6.873-9.164-11.837a17.592,17.592,0,0,1-1.527-5.728c0-2.383.382-3.436,3.818-6.491s1.527-16.036,7.636-21.382a16.4,16.4,0,0,1,7.472-3.688,15.83,15.83,0,0,0-13.463,3.688c-6.109,5.346-4.2,18.328-7.636,21.382s-3.818,4.108-3.818,6.491a17.593,17.593,0,0,0,1.527,5.728c1.528,4.964,7.636,5.346,9.164,11.837,2.058,8.748-1.909,10.309-1.909,13.364s2.673,8.782,2.673,8.782l5.9-.195c-.461-1.018-2.584-5.864-2.584-8.588C-1062.911,260.319-1058.944,258.758-1061,250.01Z" transform="translate(1077.684 -200.567)"/></g><path class="c" d="M-1022.107,308.767s-8.295-31.336-8.756-35.945,14.848-12.742,21.479-5.449l9.61,40.582Z" transform="translate(1048.834 -239.939)"/></g><path class="d" d="M-1010.094,228.587v8.295s-8.756,2.765-11.982,6.912c-2.53,3.254-2.765,9.677-.922,16.59l-1.843,25.345h11.06l17.511-41.013a29.658,29.658,0,0,0-2.775-6.891c-.912-1.4-2.867-.842-7.189-5.27S-1010.094,228.587-1010.094,228.587Z" transform="translate(1045.117 -217.824)"/></g><path class="e" d="M-905.275,371.155s-.292-3.513,5.563-4.1,6.441,4.1,6.441,4.1h-12.3" transform="translate(-106.075 -112.778)"/><rect class="f" width="127.064" height="4.099" rx="2.049" transform="translate(-1074.882 258.377)"/><g transform="translate(-989.822 257.263)"><path class="g" d="M-846.962,374.987l-.095.025c-.015-.02-.03-.036-.045-.055a2.461,2.461,0,0,0-.266-.041c.056.08.088.128.088.128l-.763.254a.586.586,0,0,0,0,.129c.02.192-.3.319-.653.384h2.955l.121-.364c-.076-.011-.121-.02-.121-.02A7.173,7.173,0,0,0-846.962,374.987Z" transform="translate(848.701 -374.916)"/></g><g transform="translate(-1046.19 184.012)"><g transform="translate(0 31.62)"><path class="h" d="M-995.6,309.164l1.757-22.836s-1.757-9.955,2.928-15.225c3.514-3.513,6.441-3.513,11.125-4.684,0,0-.586,1.171,2.342,2.342s9.954.586,10.54-.585a1.282,1.282,0,0,0-.586-1.757,17.208,17.208,0,0,1,9.954,5.855c4.684,5.27,7.448,17.869,7.448,17.869l-8.034,2.625-1.757-4.685-1.171,21.08Z" transform="translate(995.604 -266.419)"/><path class="i" d="M-965.873,332.249s-3.07,4.988-11.127,4.988C-977,337.237-974.07,334.006-965.873,332.249Z" transform="translate(984.138 -306.99)"/><path class="j" d="M-916.72,362.177a7,7,0,0,1,2.235.689c.542,1.082,1.624,1.082,2.707,1.082a11.016,11.016,0,0,0,2.706-.541c.541,0,1.082.541,1.624,2.165.342,1.027,1.083.541,1.083,0a5.593,5.593,0,0,0-.542-2.165,17.316,17.316,0,0,1,1.624,2.706c.541,1.082,1.624.541,1.082-.541s-1.624-2.707-1.624-2.707a5.987,5.987,0,0,1,2.165,2.707c.541,1.082,1.624.541,1.083-.541s-1.624-2.706-1.624-2.706l2.165,2.165c1.082,1.083,1.542.071,1.082-.541-1.623-2.165-3.248-3.789-4.872-4.33a53.244,53.244,0,0,0-6.63-.8,14.91,14.91,0,0,1-1.615-.271l-2.963-.9" transform="translate(947.181 -322.642)"/><path class="j" d="M-955.947,334.385a67.552,67.552,0,0,1-20.991-5.281,2.521,2.521,0,0,1-1.036-.664,4.039,4.039,0,0,1-.414-1.122c-1.542-3.942-4.012-8.787-4.611-11.616l8.441-3.453c.536,3.488,2.407,9.2,3.229,12.776l3.6,1.278c3.335,1.183,9.424,3.273,12.844,4.18l-1.064,3.9" transform="translate(987.836 -294.664)"/><path class="g" d="M-870.654,330.628a102.524,102.524,0,0,1-12.38-4.542l-6.488-2.7a4.3,4.3,0,0,1-1.646-1.077,9.8,9.8,0,0,1-.767-2.3c-.424-1.755-1.111-4-1.535-5.756l-4.651,7.457a47.093,47.093,0,0,0,2.048,5.05,2.938,2.938,0,0,0,.566.889,2.962,2.962,0,0,0,.98.554c6.91,2.785,14.318,4.062,21.66,5.321a1.876,1.876,0,0,1,1.183.986c.853,1.249,2.463,1.683,3.936,2.026a.745.745,0,0,0,.37.023" transform="translate(935.526 -295.896)"/><path class="k" d="M-977.843,266.419a10.456,10.456,0,0,0-2.916,8.376c.384,3.837,5.372,16.883,5.372,16.883-7.29,3.07-11.127,4.988-11.127,4.988s-2.222-6-4.221-10.744a22.993,22.993,0,0,1-1.535-5.372C-993.171,273.239-990.725,268.176-977.843,266.419Z" transform="translate(993.652 -266.419)"/><path class="k" d="M-921.671,266.523s5.008,4.644,7.35,21.625l-.186,2.827,1.151,2.3,8.825-3.07s-3.07-14.2-8.873-19.32C-917.834,266.483-921.671,266.523-921.671,266.523Z" transform="translate(950.039 -266.483)"/></g><g transform="translate(10.54)"><path class="j" d="M-953.214,250.722l2.472-11.772s1.757,7.612,9.369,8.2v4.546S-948.074,254.3-953.214,250.722Z" transform="translate(958.939 -217.87)"/><path class="j" d="M-946.771,222.961s1.757,8.783,11.125,8.783c0,0,2.342-.586,3.514-4.1a37,37,0,0,0,1.171-14.639h-11.126l-1.171,1.171S-940.915,222.376-946.771,222.961Z" transform="translate(954.968 -201.882)"/><path class="g" d="M-946.771,238.95s1.171,7.027,9.369,8.783v2.342S-946.185,249.49-946.771,238.95Z" transform="translate(954.968 -217.87)"/><path class="l" d="M-959.938,205.092a6.723,6.723,0,0,1-6.441-5.27s2.585,1.071,1.757-.586a8.466,8.466,0,0,1-1.171-4.1c0-1.757-.586-2.928-2.342-2.342a2.734,2.734,0,0,1,2.928-1.171s-.585-3.513,3.513-3.513c0,0,1.171-4.685,8.783-2.928s11.125,1.171,12.3-1.171a3.305,3.305,0,0,1,0,3.513,2.294,2.294,0,0,0,2.342-2.342s2.342,5.27-1.171,8.2-4.026,2.855-9.954,2.342-7.026.586-7.026.586Z" transform="translate(968.135 -184.012)"/></g><g transform="translate(14.622 0.731)"><path class="f" d="M-947.4,195.06s1.094-10.459,10.463-7.531l1.393-.188s-6.077-3.326-10.177.188a10.9,10.9,0,0,0-4.1,7.612Z" transform="translate(952.767 -185.916)"/><path class="f" d="M-905.567,221.894c.586,0,2.342-1.966,2.342-4.391a6.431,6.431,0,0,0-.845-3.377,3.9,3.9,0,0,1-1.416.345A29.465,29.465,0,0,1-905.567,221.894Z" transform="translate(925.492 -203.302)"/><path class="f" d="M-944.166,224.947h-1.383a.913.913,0,0,0-.61.237,7.336,7.336,0,0,1-5.86-4.807c-.04-.1-.076-.207-.111-.31,2.2-.483,3.709-3.147,3.413-6.188-.313-3.219-2.523-5.638-4.937-5.4s-4.117,3.034-3.8,6.253c.289,2.978,2.2,5.267,4.4,5.408a8.306,8.306,0,0,0,6.61,5.928.924.924,0,0,0,.9.726h1.383a.924.924,0,0,0,.921-.922A.924.924,0,0,0-944.166,224.947Z" transform="translate(957.496 -199.81)"/></g></g><g transform="translate(-1040.818 184.535)"><path class="m" d="M-888.518,211.18l-57.6-25.806L-981.6,231.917l42.054,19.977Z" transform="translate(981.605 -185.374)"/><g transform="translate(41.472 25.827)"><path class="l" d="M-868.942,367.474v-.586l8.636-.637a4.651,4.651,0,0,0,3.661-1.705h5.27v-3.514h13.467v3.514h4.685s2.342,0,2.342,2.928Z" transform="translate(870.699 -319.459)"/><path class="e" d="M-821.044,361.033v6.441h-2.245l.049-6.441Z" transform="translate(842.563 -319.46)"/><path class="e" d="M-856.646,370.19v2.928h-12.3v-.586s6.441-.586,8.783-.586C-857.231,371.361-856.646,370.19-856.646,370.19Z" transform="translate(870.699 -325.103)"/><path class="l" d="M-870.593,294.259h48.6s2.342,0,2.342-2.928V256.2s.585-3.513-2.342-3.513h-48.6s-2.928,0-2.928,2.342v36.89S-873.521,294.259-870.593,294.259Z" transform="translate(873.521 -252.685)"/><path class="e" d="M-870.593,291.916v-36.89c0-2.342,2.928-2.342,2.928-2.342h-2.928s-2.928,0-2.928,2.342v36.89s0,2.342,2.928,2.342h2.928C-870.593,294.259-870.593,291.916-870.593,291.916Z" transform="translate(873.521 -252.685)"/></g></g></g></svg>