<svg xmlns="http://www.w3.org/2000/svg" width="116.052" height="90.878" viewBox="0 0 116.052 90.878"><defs><style>.a{fill:#00083f;}.b{fill:#0064d1;}.c,.g,.o{fill:#fff;}.c{opacity:0.05;}.d{fill:#d300ab;}.e{fill:#001d5d;}.f{fill:#0044b9;}.g{opacity:0.2;}.h{fill:#006ac9;}.i{fill:#00cea3;}.j{fill:#07f7ae;}.k{fill:#00d0a2;}.l{fill:#ef22b0;}.m{fill:#b500ac;}.n{fill:#2f1e80;}</style></defs><g transform="translate(-200.286 -632.988)"><g transform="translate(200.286 632.988)"><g transform="translate(0 0)"><rect class="a" width="31.155" height="13.993" transform="translate(33.279 60.351)"/><path class="b" d="M331.334,901.3H275.923a2.448,2.448,0,0,1,2.448-2.448h50.516a2.448,2.448,0,0,1,2.448,2.448Z" transform="translate(-254.772 -824.504)"/><path class="b" d="M10.3,0h39.84a10.3,10.3,0,0,1,10.3,10.3V87.418a10.3,10.3,0,0,1-10.3,10.3H10.3A10.3,10.3,0,0,1,0,87.418V10.3A10.3,10.3,0,0,1,10.3,0Z" transform="translate(97.713 0) rotate(90)"/><path class="a" d="M6.362,0H89.152a6.362,6.362,0,0,1,6.362,6.362V51.87a6.361,6.361,0,0,1-6.361,6.361H6.362A6.362,6.362,0,0,1,0,51.869V6.362A6.362,6.362,0,0,1,6.362,0Z" transform="translate(1.1 1.1)"/></g></g><path class="c" d="M206,636.923a1.779,1.779,0,0,0-1.779,1.779v54.674l93.734-56.452Z" transform="translate(-2.834 -2.834)"/><g transform="translate(260.302 669.724)"><g transform="translate(0)"><path class="d" d="M488.9,813.085h-2.179v-5.257h-6.832a6.451,6.451,0,0,1-6.709-6.157v-9.306c0-5.694,5.03-10.309,11.234-10.309h1.926c6.2,0,11.234,4.615,11.234,10.309V804.41A8.675,8.675,0,0,1,488.9,813.085Z" transform="translate(-456.881 -777.106)"/><path class="e" d="M496.351,803.438a98.59,98.59,0,0,0-29.261-9.758c1.043-6.274,1.532-10.886,2.576-17.161a117.676,117.676,0,0,1,34.925,11.646C501.659,793.811,499.283,797.794,496.351,803.438Z" transform="translate(-452.497 -773.118)"/><path class="f" d="M455.249,767.488a7.916,7.916,0,1,0,11.09-1.524A7.915,7.915,0,0,0,455.249,767.488Z" transform="translate(-442.808 -764.355)"/><path class="f" d="M416.154,832.559a6.143,6.143,0,1,0,8.607-1.183A6.143,6.143,0,0,0,416.154,832.559Z" transform="translate(-414.906 -811.735)"/><path class="f" d="M441.719,787.577l-13.874,15.384-9.739-7.386,11.071-17.509Z" transform="translate(-417.211 -774.232)"/><path class="b" d="M426.218,825.775l-.505.807s7.457.089,11.644,6.3l.641-.733C433.762,825.865,426.218,825.775,426.218,825.775Z" transform="translate(-422.691 -808.6)"/><path class="g" d="M422.848,819.566a4.747,4.747,0,0,1-2.563-6.946l.009-.015,7.248-11.467a.876.876,0,0,1,1.481.936l-7.243,11.46a2.995,2.995,0,0,0,1.622,4.37.876.876,0,0,1-.554,1.662Z" transform="translate(-418.287 -790.557)"/><g transform="translate(40.206 9.796)"><path class="f" d="M574.514,807.26a7.916,7.916,0,1,1-7.956-7.875A7.916,7.916,0,0,1,574.514,807.26Z" transform="translate(-558.683 -799.385)"/><path class="f" d="M577.687,886.425a6.143,6.143,0,1,1-6.175-6.112A6.144,6.144,0,0,1,577.687,886.425Z" transform="translate(-563.521 -857.682)"/><path class="f" d="M558.86,830.651l1.864,20.631,12.223-.062,1.653-20.65Z" transform="translate(-558.811 -821.85)"/><path class="b" d="M576.538,879.826l-.08.948s-6.018-4.4-13.094-1.95l-.073-.971C570.45,875.37,576.538,879.826,576.538,879.826Z" transform="translate(-562.002 -855.368)"/><path class="g" d="M572.435,894.683a4.75,4.75,0,0,1-3.212-3.97l0-.018-.381-4.215a.876.876,0,1,1,1.745-.157l.38,4.2a2.983,2.983,0,0,0,2.985,2.644.876.876,0,0,1,.009,1.752A4.733,4.733,0,0,1,572.435,894.683Z" transform="translate(-565.998 -861.438)"/></g><g transform="translate(11.936 1.104)"><path class="b" d="M470.861,777.27a6.81,6.81,0,1,1-4.306-8.615A6.811,6.811,0,0,1,470.861,777.27Z" transform="translate(-457.588 -768.304)"/><path class="h" d="M464.783,783.005a5.934,5.934,0,1,1,7.506-3.752A5.941,5.941,0,0,1,464.783,783.005Z" transform="translate(-459.848 -770.564)"/><path class="i" d="M475.077,782.011l-2.207-.736.736-2.207a.547.547,0,0,0-.346-.692l-1.273-.424a.547.547,0,0,0-.692.346l-.736,2.208-2.207-.736a.547.547,0,0,0-.692.346l-.424,1.273a.547.547,0,0,0,.346.692l2.207.736-.736,2.207a.547.547,0,0,0,.346.692l1.273.424a.547.547,0,0,0,.692-.346l.736-2.208,2.208.736a.547.547,0,0,0,.692-.346l.424-1.273A.547.547,0,0,0,475.077,782.011Z" transform="translate(-464.517 -775.233)"/><path class="j" d="M472.47,787.469l.909-2.726-2.726-.909.216-.648,2.727.909.909-2.727.648.216-.909,2.726,2.726.909-.216.648-2.726-.909-.909,2.727Z" transform="translate(-466.999 -777.715)"/><g transform="translate(29.373 9.795)"><path class="b" d="M575.9,812.3a6.81,6.81,0,1,1-4.306-8.615A6.81,6.81,0,0,1,575.9,812.3Z" transform="translate(-562.629 -803.331)"/><path class="h" d="M569.824,818.032a5.934,5.934,0,1,1,7.506-3.752A5.94,5.94,0,0,1,569.824,818.032Z" transform="translate(-564.889 -805.591)"/><path class="i" d="M587.707,812.729a1.793,1.793,0,1,1-1.134-2.268A1.793,1.793,0,0,1,587.707,812.729Z" transform="translate(-578.177 -808.4)"/><path class="j" d="M587.974,815.29a.917.917,0,1,1,1.16-.58A.918.918,0,0,1,587.974,815.29Z" transform="translate(-580.435 -810.658)"/><path class="i" d="M580.431,834.547a1.793,1.793,0,1,1-1.134-2.268A1.794,1.794,0,0,1,580.431,834.547Z" transform="translate(-572.936 -824.117)"/><path class="j" d="M580.7,837.107a.917.917,0,1,1,1.16-.58A.918.918,0,0,1,580.7,837.107Z" transform="translate(-575.193 -826.375)"/><path class="i" d="M592.71,828.41a1.793,1.793,0,1,1,2.268-1.134A1.793,1.793,0,0,1,592.71,828.41Z" transform="translate(-583.414 -818.879)"/><path class="j" d="M595.245,829.836a.917.917,0,1,1,1.16-.58A.918.918,0,0,1,595.245,829.836Z" transform="translate(-585.673 -821.137)"/><path class="i" d="M570.892,821.134A1.793,1.793,0,1,1,573.16,820,1.793,1.793,0,0,1,570.892,821.134Z" transform="translate(-567.698 -813.638)"/><path class="j" d="M573.427,822.56a.917.917,0,1,1,1.16-.58A.917.917,0,0,1,573.427,822.56Z" transform="translate(-569.956 -815.896)"/></g></g><g transform="translate(20.194 17.795)"><path class="k" d="M495.09,833.375A4.089,4.089,0,1,1,492.5,828.2,4.089,4.089,0,0,1,495.09,833.375Z" transform="translate(-487.121 -827.992)"/><path class="j" d="M494.987,838.814a2.337,2.337,0,1,1,2.956-1.478A2.34,2.34,0,0,1,494.987,838.814Z" transform="translate(-491.637 -832.508)"/><path class="k" d="M534.514,846.522a4.089,4.089,0,1,1-2.586-5.172A4.089,4.089,0,0,1,534.514,846.522Z" transform="translate(-515.521 -837.462)"/><path class="j" d="M534.411,851.961a2.337,2.337,0,1,1,2.956-1.478A2.339,2.339,0,0,1,534.411,851.961Z" transform="translate(-520.036 -841.978)"/></g><path class="l" d="M515.753,779.828h0a2.826,2.826,0,0,1-1.951-3.488l1.436-5.081a1.231,1.231,0,0,1,1.519-.85l3.07.868a1.231,1.231,0,0,1,.85,1.519l-1.436,5.081A2.826,2.826,0,0,1,515.753,779.828Z" transform="translate(-486.069 -768.682)"/><path class="l" d="M501.512,776.279h0a2.21,2.21,0,0,1-1.794-2.56l.715-4.068a.963.963,0,0,1,1.115-.782l2.458.432a.963.963,0,0,1,.782,1.115l-.716,4.068A2.211,2.211,0,0,1,501.512,776.279Z" transform="translate(-475.977 -767.596)"/><path class="l" d="M532.621,787.558h0a2.825,2.825,0,0,1-.627-3.947l3.1-4.273a1.231,1.231,0,0,1,1.719-.273l2.582,1.875a1.23,1.23,0,0,1,.273,1.719l-3.1,4.273A2.826,2.826,0,0,1,532.621,787.558Z" transform="translate(-498.863 -774.782)"/><path class="l" d="M546.508,801.463h0a2.826,2.826,0,0,1,.636-3.945l4.281-3.091a1.231,1.231,0,0,1,1.718.277l1.868,2.586a1.231,1.231,0,0,1-.277,1.719l-4.281,3.091A2.826,2.826,0,0,1,546.508,801.463Z" transform="translate(-509.322 -785.849)"/><path class="d" d="M505.434,895.624H491.1L490.044,873.1H506.31Z" transform="translate(-469.032 -842.688)"/><g transform="translate(14.308 14.565)"><path class="l" d="M483.372,817.927h0a5.126,5.126,0,0,1-5.365,4.875l-3.735-.179a1.346,1.346,0,0,1-1.28-1.409l.167-3.485a1.346,1.346,0,0,1,1.409-1.28l7.8.373A1.055,1.055,0,0,1,483.372,817.927Z" transform="translate(-471.055 -816.446)"/><path class="l" d="M469.583,816.445h0a3.09,3.09,0,0,1,2.939,3.234l-.276,7.52a1.346,1.346,0,0,1-1.409,1.28l-3.485-.167a1.346,1.346,0,0,1-1.28-1.409l.276-7.52A3.091,3.091,0,0,1,469.583,816.445Z" transform="translate(-466.07 -816.441)"/><path class="l" d="M467.266,842.062h0c1.49-1.352,3.525-1.212,5.192-.815A12.562,12.562,0,0,1,479.8,846.8a3.474,3.474,0,0,1-1.326,5.033l-5,2.509-6.462-7.134A3.643,3.643,0,0,1,467.266,842.062Z" transform="translate(-466.07 -834.113)"/></g><path class="m" d="M538.8,905.359l.692-18.728a1.844,1.844,0,0,0-2.1,1.007,7.716,7.716,0,0,0-.751,3.141c-.208,2.736-.264,11.813-.277,14.58Z" transform="translate(-502.402 -852.423)"/></g><rect class="n" width="40.244" height="1.207" transform="translate(8.653 52.936)"/></g><g transform="translate(211.023 639.385)"><g transform="translate(12.515 15.515)"><path class="j" d="M284.088,714.962l3.944,2.277a.434.434,0,0,1,0,.752l-3.944,2.277a.434.434,0,0,1-.652-.376v-4.554A.434.434,0,0,1,284.088,714.962Z" transform="translate(-283.436 -713.908)"/><path class="b" d="M311.439,712.839a.747.747,0,1,1,0-1.494h20.079a.747.747,0,1,1,0,1.494Z" transform="translate(-303.07 -711.345)"/><path class="b" d="M311.439,722.537a.747.747,0,1,1,0-1.494h20.079a.747.747,0,0,1,0,1.494Z" transform="translate(-303.07 -718.331)"/><path class="b" d="M311.439,732.236a.747.747,0,1,1,0-1.494h15.525a.747.747,0,0,1,0,1.494Z" transform="translate(-303.07 -725.318)"/><g transform="translate(0 10.855)"><path class="n" d="M284.088,753.781l3.944,2.277a.434.434,0,0,1,0,.752l-3.944,2.277a.434.434,0,0,1-.652-.376v-4.555A.434.434,0,0,1,284.088,753.781Z" transform="translate(-283.436 -752.727)"/><path class="n" d="M311.439,751.657a.747.747,0,1,1,0-1.494h20.079a.747.747,0,1,1,0,1.494Z" transform="translate(-303.07 -750.163)"/><path class="n" d="M311.439,761.356a.747.747,0,1,1,0-1.494h20.079a.747.747,0,0,1,0,1.494Z" transform="translate(-303.07 -757.15)"/><path class="n" d="M311.439,771.055a.747.747,0,1,1,0-1.494h15.525a.747.747,0,0,1,0,1.494Z" transform="translate(-303.07 -764.137)"/></g><g transform="translate(0 21.71)"><path class="n" d="M284.088,792.6l3.944,2.277a.434.434,0,0,1,0,.752l-3.944,2.277a.434.434,0,0,1-.652-.376v-4.554A.434.434,0,0,1,284.088,792.6Z" transform="translate(-283.436 -791.545)"/><path class="n" d="M311.439,790.476a.747.747,0,1,1,0-1.494h20.079a.747.747,0,1,1,0,1.494Z" transform="translate(-303.07 -788.982)"/><path class="n" d="M311.439,800.176a.747.747,0,1,1,0-1.494h20.079a.747.747,0,1,1,0,1.494Z" transform="translate(-303.07 -795.97)"/><path class="n" d="M311.439,809.875a.747.747,0,1,1,0-1.494h15.525a.747.747,0,0,1,0,1.494Z" transform="translate(-303.07 -802.956)"/></g></g><path class="b" d="M286.233,663.835H242.666a3.986,3.986,0,0,1-3.986-3.986h0a3.986,3.986,0,0,1,3.986-3.986h43.568a3.986,3.986,0,0,1,3.986,3.986h0A3.986,3.986,0,0,1,286.233,663.835Z" transform="translate(-238.68 -655.864)"/><path class="n" d="M246.247,666.027a2.6,2.6,0,1,1,0-5.191h43.568a2.6,2.6,0,1,1,0,5.191Z" transform="translate(-242.261 -659.446)"/><path class="l" d="M249.828,668.218a1.205,1.205,0,1,1,0-2.41h15.777a1.205,1.205,0,1,1,0,2.41Z" transform="translate(-245.843 -663.027)"/><g transform="translate(74.111 1.855)"><path class="h" d="M549.506,675.656h-1.98a.431.431,0,0,0-.418.54l.623,2.4a.432.432,0,0,1-.653.47l-4.524-2.944a2.876,2.876,0,0,0-1.568-.465h-8.26a1.564,1.564,0,0,1-1.564-1.564V664.063a1.564,1.564,0,0,1,1.564-1.564h16.781a1.563,1.563,0,0,1,1.563,1.564v10.029A1.563,1.563,0,0,1,549.506,675.656Z" transform="translate(-523.484 -662.499)"/><g transform="translate(11.436 5.555)"><path class="f" d="M579.156,683.73a1.365,1.365,0,1,0,1.365-1.365A1.365,1.365,0,0,0,579.156,683.73Z" transform="translate(-569.492 -682.365)"/><path class="f" d="M561.877,683.73a1.365,1.365,0,1,0,1.365-1.365A1.365,1.365,0,0,0,561.877,683.73Z" transform="translate(-557.045 -682.365)"/><path class="f" d="M544.6,683.73a1.365,1.365,0,1,0,1.365-1.365A1.365,1.365,0,0,0,544.6,683.73Z" transform="translate(-544.598 -682.365)"/></g><path class="o" d="M505.268,689.971h1.98a.431.431,0,0,1,.418.54l-.623,2.4a.431.431,0,0,0,.653.47l4.524-2.945a2.875,2.875,0,0,1,1.568-.465h8.26a1.564,1.564,0,0,0,1.563-1.564V678.378a1.563,1.563,0,0,0-1.563-1.564H505.268a1.564,1.564,0,0,0-1.564,1.564v10.029A1.564,1.564,0,0,0,505.268,689.971Z" transform="translate(-503.704 -672.811)"/><g transform="translate(3.757 9.558)"><path class="l" d="M519.87,698.045a1.365,1.365,0,1,1-1.365-1.365A1.365,1.365,0,0,1,519.87,698.045Z" transform="translate(-517.14 -696.68)"/><path class="l" d="M537.149,698.045a1.365,1.365,0,1,1-1.365-1.365A1.365,1.365,0,0,1,537.149,698.045Z" transform="translate(-529.587 -696.68)"/><path class="l" d="M554.428,698.045a1.365,1.365,0,1,1-1.365-1.365A1.365,1.365,0,0,1,554.428,698.045Z" transform="translate(-542.034 -696.68)"/></g></g></g></g></svg>