<svg xmlns="http://www.w3.org/2000/svg" xmlns:xlink="http://www.w3.org/1999/xlink" width="272.082" height="272.08" viewBox="0 0 272.082 272.08"><defs><style>.a{fill:url(#a);}.b{fill:url(#b);}.c{fill:url(#e);}.d{fill:url(#f);}.e{fill:url(#g);}.f{opacity:0.6;mix-blend-mode:screen;isolation:isolate;fill:url(#h);}.g{filter:url(#c);}</style><linearGradient id="a" x1="0.03" y1="0.5" x2="1.027" y2="0.5" gradientUnits="objectBoundingBox"><stop offset="0" stop-color="#b77e70"/><stop offset="0.008" stop-color="#b97f6f"/><stop offset="0.14" stop-color="#d89261"/><stop offset="0.258" stop-color="#cca28b"/><stop offset="0.36" stop-color="#d89261"/><stop offset="0.489" stop-color="#b77e70"/><stop offset="0.496" stop-color="#b97f6f"/><stop offset="0.613" stop-color="#d89261"/><stop offset="0.737" stop-color="#cca28b"/><stop offset="0.839" stop-color="#d89261"/><stop offset="1" stop-color="#b77e70"/></linearGradient><linearGradient id="b" x1="0.133" y1="0.133" x2="0.805" y2="0.805" gradientUnits="objectBoundingBox"><stop offset="0" stop-color="#bc7240"/><stop offset="0.075" stop-color="#cb8b68"/><stop offset="0.14" stop-color="#d89f88"/><stop offset="0.258" stop-color="#cca28b"/><stop offset="0.36" stop-color="#d89f88"/><stop offset="0.489" stop-color="#bc7240"/><stop offset="0.556" stop-color="#cb8b68"/><stop offset="0.613" stop-color="#d89f88"/><stop offset="0.737" stop-color="#cca28b"/><stop offset="0.839" stop-color="#d89f88"/><stop offset="1" stop-color="#bc7240"/></linearGradient><filter id="c" x="0" y="0" width="272.082" height="272.08" filterUnits="userSpaceOnUse"><feOffset input="SourceAlpha"/><feGaussianBlur stdDeviation="17.5" result="d"/><feFlood flood-color="#d4a089" flood-opacity="0.549"/><feComposite operator="in" in2="d"/><feComposite in="SourceGraphic"/></filter><linearGradient id="e" x1="0.154" y1="0.846" x2="0.86" y2="0.139" xlink:href="#a"/><linearGradient id="f" x1="0.133" y1="0.133" x2="0.805" y2="0.805" gradientUnits="objectBoundingBox"><stop offset="0" stop-color="#0f1115"/><stop offset="0.14" stop-color="#1c2228"/><stop offset="0.258" stop-color="#232a32"/><stop offset="0.36" stop-color="#1c2228"/><stop offset="0.489" stop-color="#0f1115"/><stop offset="0.613" stop-color="#1c2228"/><stop offset="0.737" stop-color="#232a32"/><stop offset="0.839" stop-color="#1c2228"/><stop offset="1" stop-color="#0f1115"/></linearGradient><linearGradient id="g" x1="0.133" y1="0.133" x2="0.805" y2="0.805" gradientUnits="objectBoundingBox"><stop offset="0" stop-color="#161a1f"/><stop offset="0.14" stop-color="#2a323b"/><stop offset="0.258" stop-color="#343f4a"/><stop offset="0.36" stop-color="#2a323b"/><stop offset="0.489" stop-color="#161a1f"/><stop offset="0.613" stop-color="#2a323b"/><stop offset="0.737" stop-color="#343f4a"/><stop offset="0.839" stop-color="#2a323b"/><stop offset="1" stop-color="#161a1f"/></linearGradient><radialGradient id="h" cx="1.041" cy="0.632" r="1.138" gradientTransform="translate(-0.013) scale(1.026 1)" gradientUnits="objectBoundingBox"><stop offset="0" stop-color="#e8e8e8"/><stop offset="0.054" stop-color="#a6a6a6"/><stop offset="0.14" stop-color="#606060"/><stop offset="0.209" stop-color="#4b4b4b"/><stop offset="0.326" stop-color="#303030"/><stop offset="0.453" stop-color="#1a1a1a"/><stop offset="0.594" stop-color="#0b0b0b"/><stop offset="0.757" stop-color="#020202"/><stop offset="1"/></radialGradient></defs><g transform="translate(222.027 28.687)"><path class="a" d="M-.785,107.353a85.2,85.2,0,0,1-85.2,85.2,85.2,85.2,0,0,1-85.2-85.2,85.2,85.2,0,0,1,85.2-85.2A85.2,85.2,0,0,1-.785,107.353Z"/><g class="g" transform="matrix(1, 0, 0, 1, -222.03, -28.69)"><path class="b" d="M-3.251,106.548a83.539,83.539,0,0,1-83.542,83.54,83.537,83.537,0,0,1-83.54-83.54,83.539,83.539,0,0,1,83.54-83.54A83.54,83.54,0,0,1-3.251,106.548Z" transform="translate(222.83 29.49)"/></g><path class="c" d="M-143.1,48.79A74.154,74.154,0,0,1-91.226,27.722a74.391,74.391,0,0,1,74.394,74.393,74.391,74.391,0,0,1-74.394,74.393,74.391,74.391,0,0,1-74.394-74.393A74.168,74.168,0,0,1-143.1,48.79" transform="translate(5.239 5.239)"/><path class="d" d="M-19.271,101.318a72.748,72.748,0,0,1-72.751,72.749,72.748,72.748,0,0,1-72.751-72.749A72.748,72.748,0,0,1-92.022,28.569,72.748,72.748,0,0,1-19.271,101.318Z" transform="translate(6.035 6.035)"/><path class="e" d="M-30.836,97.543A64.961,64.961,0,0,1-95.8,162.5a64.961,64.961,0,0,1-64.962-64.961A64.958,64.958,0,0,1-95.8,32.583,64.958,64.958,0,0,1-30.836,97.543Z" transform="translate(9.811 9.811)"/><path class="f" d="M-138.2,146.735A230.324,230.324,0,0,1-49.545,51.942,64.751,64.751,0,0,0-95.8,32.583a64.958,64.958,0,0,0-64.962,64.96A64.8,64.8,0,0,0-138.2,146.735Z" transform="translate(9.811 9.811)"/></g></svg>