<svg xmlns="http://www.w3.org/2000/svg" xmlns:xlink="http://www.w3.org/1999/xlink" width="300.671" height="290.804" viewBox="0 0 300.671 290.804"><defs><style>.a{fill:url(#a);}.b{fill:url(#b);}.c{fill:url(#f);}.d{fill:url(#g);}.e{opacity:0.6;mix-blend-mode:screen;isolation:isolate;fill:url(#h);}.f{filter:url(#c);}</style><linearGradient id="a" x1="-0.016" y1="0.5" x2="0.963" y2="0.5" gradientUnits="objectBoundingBox"><stop offset="0" stop-color="#b07515"/><stop offset="0.094" stop-color="#e0ba5f"/><stop offset="0.14" stop-color="#f5d77f"/><stop offset="0.258" stop-color="#ffffd7"/><stop offset="0.36" stop-color="#f5d77f"/><stop offset="0.489" stop-color="#b07515"/><stop offset="0.573" stop-color="#e0ba5f"/><stop offset="0.613" stop-color="#f5d77f"/><stop offset="0.737" stop-color="#ffffd7"/><stop offset="0.839" stop-color="#f5d77f"/><stop offset="1" stop-color="#b07515"/></linearGradient><linearGradient id="b" x1="0.098" y1="0.077" x2="0.861" y2="0.88" xlink:href="#a"/><filter id="c" x="0" y="0" width="300.671" height="290.804" filterUnits="userSpaceOnUse"><feOffset input="SourceAlpha"/><feGaussianBlur stdDeviation="17.5" result="d"/><feFlood flood-color="#edcc73" flood-opacity="0.502"/><feComposite operator="in" in2="d"/><feComposite in="SourceGraphic"/></filter><linearGradient id="f" x1="0.102" y1="0.078" x2="0.857" y2="0.878" gradientUnits="objectBoundingBox"><stop offset="0" stop-color="#0f1115"/><stop offset="0.14" stop-color="#1c2228"/><stop offset="0.258" stop-color="#232a32"/><stop offset="0.36" stop-color="#1c2228"/><stop offset="0.489" stop-color="#0f1115"/><stop offset="0.613" stop-color="#1c2228"/><stop offset="0.737" stop-color="#232a32"/><stop offset="0.839" stop-color="#1c2228"/><stop offset="1" stop-color="#0f1115"/></linearGradient><linearGradient id="g" x1="0.102" y1="0.078" x2="0.857" y2="0.878" gradientUnits="objectBoundingBox"><stop offset="0" stop-color="#161a1f"/><stop offset="0.14" stop-color="#2a323b"/><stop offset="0.258" stop-color="#343f4a"/><stop offset="0.36" stop-color="#2a323b"/><stop offset="0.489" stop-color="#161a1f"/><stop offset="0.613" stop-color="#2a323b"/><stop offset="0.737" stop-color="#343f4a"/><stop offset="0.839" stop-color="#2a323b"/><stop offset="1" stop-color="#161a1f"/></linearGradient><radialGradient id="h" cx="1.071" cy="0.256" r="1.293" gradientTransform="translate(-0.038) scale(1.075 1)" gradientUnits="objectBoundingBox"><stop offset="0" stop-color="#e8e8e8"/><stop offset="0.054" stop-color="#a6a6a6"/><stop offset="0.14" stop-color="#606060"/><stop offset="0.209" stop-color="#4b4b4b"/><stop offset="0.326" stop-color="#303030"/><stop offset="0.453" stop-color="#1a1a1a"/><stop offset="0.594" stop-color="#0b0b0b"/><stop offset="0.757" stop-color="#020202"/><stop offset="1"/></radialGradient></defs><g transform="translate(368.068 -107.512)"><path class="a" d="M-129.75,185.272c-12.5-4.216-11.562-5.154-29.063-14.049-16.416-8.347-36.565-13.038-58.924-13.038s-42.5,4.691-58.917,13.038c-17.5,8.895-16.565,9.833-29.063,14.049v20.946h-11.676v93.389h11.676v20.948c12.5,4.216,11.564,5.152,29.063,14.049,16.414,8.345,36.563,13.04,58.917,13.04s42.509-4.695,58.924-13.04c17.5-8.9,16.565-9.833,29.063-14.049V299.608h11.678V206.219H-129.75Z" transform="translate(0 0)"/><g class="f" transform="matrix(1, 0, 0, 1, -368.07, 107.51)"><path class="b" d="M-218.537,345.016c-21.48,0-41.567-4.44-58.09-12.842-6.1-3.1-9.875-5.189-12.913-6.868a76.105,76.105,0,0,0-15.15-6.855v-21.47h-11.678V207.246h11.678V185.78a76.179,76.179,0,0,0,15.143-6.855c3.036-1.678,6.816-3.769,12.92-6.871,16.522-8.4,36.609-12.842,58.09-12.842s41.574,4.44,58.1,12.842c6.108,3.1,9.888,5.195,12.926,6.875a76.294,76.294,0,0,0,15.139,6.852v21.466H-120.7v89.735h-11.678v21.47a76.345,76.345,0,0,0-15.148,6.852c-3.036,1.68-6.814,3.771-12.917,6.871C-176.963,340.576-197.053,345.016-218.537,345.016Z" transform="translate(368.87 -106.71)"/></g><path class="a" d="M-221.886,334.019c-20.283,0-39.172-4.152-54.625-12.009-5.98-3.04-9.694-5.093-12.676-6.745a85.92,85.92,0,0,0-11.206-5.5V285.986h-11.678V211.54h11.678V187.762a86.293,86.293,0,0,0,11.2-5.5c2.984-1.652,6.7-3.707,12.684-6.748,15.456-7.857,34.344-12.009,54.626-12.009s39.177,4.152,54.632,12.009c5.989,3.041,9.7,5.1,12.691,6.75a86.467,86.467,0,0,0,11.194,5.494V211.54h11.676v74.446H-143.37v23.776a85.72,85.72,0,0,0-11.2,5.5c-2.986,1.652-6.7,3.705-12.682,6.747C-182.709,329.867-201.6,334.019-221.886,334.019Z" transform="translate(4.149 4.15)"/><path class="c" d="M-222.687,331.393c-20,0-38.6-4.084-53.8-11.812-5.935-3.017-9.63-5.058-12.6-6.7a92.409,92.409,0,0,0-10.29-5.154V283.36h-11.676V212.566h11.676V188.194a92.845,92.845,0,0,0,10.251-5.125c2.967-1.643,6.652-3.682,12.632-6.72,15.2-7.731,33.8-11.813,53.8-11.813s38.606,4.082,53.8,11.812c5.948,3.022,9.644,5.067,12.614,6.707A92.889,92.889,0,0,0-146,188.194v24.372h11.68V283.36H-146v24.369a92.4,92.4,0,0,0-10.256,5.136c-2.979,1.648-6.677,3.693-12.625,6.716C-184.081,327.309-202.687,331.393-222.687,331.393Z" transform="translate(4.95 4.95)"/><path class="d" d="M-226.408,319.859c-18.074,0-34.888-3.691-48.624-10.676-5.364-2.726-8.7-4.572-11.384-6.054a83.062,83.062,0,0,0-9.3-4.656V276.445h-10.553V212.459h10.553V190.425a83.765,83.765,0,0,0,9.265-4.631c2.684-1.486,6.013-3.33,11.42-6.078,13.739-6.985,30.553-10.676,48.625-10.676s34.894,3.691,48.631,10.676c5.376,2.732,8.717,4.579,11.4,6.063a83.527,83.527,0,0,0,9.284,4.645v22.034h10.555v63.986h-10.555v22.029a82.674,82.674,0,0,0-9.272,4.64c-2.694,1.49-6.037,3.337-11.411,6.07C-191.515,316.168-208.331,319.859-226.408,319.859Z" transform="translate(8.671 8.463)"/><path class="e" d="M-271.878,310.7a239.962,239.962,0,0,1,59.289-98.406A237.94,237.94,0,0,1-174.507,181.4c-1.007-.525-2.08-1.077-3.271-1.684-13.737-6.985-30.553-10.676-48.631-10.676s-34.886,3.691-48.625,10.676c-5.407,2.748-8.736,4.591-11.42,6.078a83.765,83.765,0,0,1-9.265,4.631v22.034h-10.553v63.986h10.553v22.029a83.062,83.062,0,0,1,9.3,4.656c2.682,1.482,6.021,3.328,11.384,6.054C-274,309.708-272.945,310.21-271.878,310.7Z" transform="translate(8.671 8.463)"/></g></svg>