<svg xmlns="http://www.w3.org/2000/svg" xmlns:xlink="http://www.w3.org/1999/xlink" width="271.503" height="271.502" viewBox="0 0 271.503 271.502"><defs><style>.a{fill:url(#a);}.b{fill:url(#b);}.c{fill:url(#e);}.d{fill:url(#f);}.e{fill:url(#g);}.f{opacity:0.6;mix-blend-mode:screen;isolation:isolate;fill:url(#h);}.g{filter:url(#c);}</style><linearGradient id="a" x1="0.03" y1="0.5" x2="1.027" y2="0.5" gradientUnits="objectBoundingBox"><stop offset="0" stop-color="#a8a8a8"/><stop offset="0.036" stop-color="#b4b4b4"/><stop offset="0.14" stop-color="#d3d3d3"/><stop offset="0.258" stop-color="#fff"/><stop offset="0.36" stop-color="#d3d3d3"/><stop offset="0.489" stop-color="#a8a8a8"/><stop offset="0.521" stop-color="#b4b4b4"/><stop offset="0.613" stop-color="#d3d3d3"/><stop offset="0.737" stop-color="#fff"/><stop offset="0.839" stop-color="#d3d3d3"/><stop offset="1" stop-color="#a8a8a8"/></linearGradient><linearGradient id="b" x1="0.133" y1="0.133" x2="0.805" y2="0.805" gradientUnits="objectBoundingBox"><stop offset="0" stop-color="#a8a29a"/><stop offset="0.069" stop-color="#c2bfbc"/><stop offset="0.14" stop-color="#dbdbdb"/><stop offset="0.258" stop-color="#fff"/><stop offset="0.36" stop-color="#dbdbdb"/><stop offset="0.489" stop-color="#a8a29a"/><stop offset="0.55" stop-color="#c2bfbc"/><stop offset="0.613" stop-color="#dbdbdb"/><stop offset="0.737" stop-color="#fff"/><stop offset="0.839" stop-color="#dbdbdb"/><stop offset="1" stop-color="#a8a29a"/></linearGradient><filter id="c" x="0" y="0" width="271.503" height="271.502" filterUnits="userSpaceOnUse"><feOffset input="SourceAlpha"/><feGaussianBlur stdDeviation="17.5" result="d"/><feFlood flood-color="#d4d4d4" flood-opacity="0.612"/><feComposite operator="in" in2="d"/><feComposite in="SourceGraphic"/></filter><linearGradient id="e" x1="0.154" y1="0.846" x2="0.86" y2="0.139" xlink:href="#a"/><linearGradient id="f" x1="0.133" y1="0.133" x2="0.805" y2="0.805" gradientUnits="objectBoundingBox"><stop offset="0" stop-color="#0f1115"/><stop offset="0.14" stop-color="#1c2228"/><stop offset="0.258" stop-color="#232a32"/><stop offset="0.36" stop-color="#1c2228"/><stop offset="0.489" stop-color="#0f1115"/><stop offset="0.613" stop-color="#1c2228"/><stop offset="0.737" stop-color="#232a32"/><stop offset="0.839" stop-color="#1c2228"/><stop offset="1" stop-color="#0f1115"/></linearGradient><linearGradient id="g" x1="0.133" y1="0.133" x2="0.805" y2="0.805" gradientUnits="objectBoundingBox"><stop offset="0" stop-color="#161a1f"/><stop offset="0.14" stop-color="#2a323b"/><stop offset="0.258" stop-color="#343f4a"/><stop offset="0.36" stop-color="#2a323b"/><stop offset="0.489" stop-color="#161a1f"/><stop offset="0.613" stop-color="#2a323b"/><stop offset="0.737" stop-color="#343f4a"/><stop offset="0.839" stop-color="#2a323b"/><stop offset="1" stop-color="#161a1f"/></linearGradient><radialGradient id="h" cx="1.041" cy="0.632" r="1.138" gradientTransform="translate(-0.013) scale(1.026 1)" gradientUnits="objectBoundingBox"><stop offset="0" stop-color="#e8e8e8"/><stop offset="0.054" stop-color="#a6a6a6"/><stop offset="0.14" stop-color="#606060"/><stop offset="0.209" stop-color="#4b4b4b"/><stop offset="0.326" stop-color="#303030"/><stop offset="0.453" stop-color="#1a1a1a"/><stop offset="0.594" stop-color="#0b0b0b"/><stop offset="0.757" stop-color="#020202"/><stop offset="1"/></radialGradient></defs><g transform="translate(222.033 28.693)"><path class="a" d="M-1.376,107.058a84.9,84.9,0,0,1-84.906,84.906,84.9,84.9,0,0,1-84.908-84.906A84.906,84.906,0,0,1-86.282,22.152,84.9,84.9,0,0,1-1.376,107.058Z" transform="translate(0 0)"/><g class="g" transform="matrix(1, 0, 0, 1, -222.03, -28.69)"><path class="b" d="M-3.83,106.259A83.25,83.25,0,0,1-87.082,189.51a83.248,83.248,0,0,1-83.251-83.251A83.249,83.249,0,0,1-87.082,23.008,83.251,83.251,0,0,1-3.83,106.259Z" transform="translate(222.83 29.49)"/></g><path class="c" d="M-143.18,48.717a73.9,73.9,0,0,1,51.7-21,74.134,74.134,0,0,1,74.137,74.135,74.134,74.134,0,0,1-74.137,74.135,74.134,74.134,0,0,1-74.137-74.135,73.911,73.911,0,0,1,22.44-53.139" transform="translate(5.201 5.201)"/><path class="d" d="M-19.775,101.066a72.5,72.5,0,0,1-72.5,72.5,72.5,72.5,0,0,1-72.5-72.5,72.5,72.5,0,0,1,72.5-72.5A72.5,72.5,0,0,1-19.775,101.066Z" transform="translate(5.992 5.992)"/><path class="e" d="M-27.947,99.987a65.405,65.405,0,0,1-65.406,65.406,65.4,65.4,0,0,1-65.406-65.406,65.4,65.4,0,0,1,65.406-65.4A65.4,65.4,0,0,1-27.947,99.987Z" transform="translate(7.071 7.071)"/><path class="f" d="M-137.622,141.542a217.09,217.09,0,0,1,40.194-55.6A216.487,216.487,0,0,1-54.551,52.722,60.674,60.674,0,0,0-97.89,34.583,60.865,60.865,0,0,0-158.759,95.45,60.711,60.711,0,0,0-137.622,141.542Z" transform="translate(11.608 11.608)"/></g></svg>