<svg xmlns="http://www.w3.org/2000/svg" width="20.865" height="20.865" viewBox="0 0 20.865 20.865"><defs><style>.a{fill:#f6f418;}</style></defs><g transform="translate(1424.113 -1662.549) rotate(-45)"><path class="a" d="M-2182.6,176a7.4,7.4,0,0,0-7.4,7.4,7.4,7.4,0,0,0,6.213,7.306v-3.917a3.591,3.591,0,0,1-2.4-3.389,3.59,3.59,0,0,1,3.59-3.59,3.59,3.59,0,0,1,3.59,3.59,3.591,3.591,0,0,1-2.347,3.369V190.7a7.4,7.4,0,0,0,6.158-7.3A7.4,7.4,0,0,0-2182.6,176Z"/><circle class="a" cx="1.5" cy="1.5" r="1.5" transform="translate(-2184.221 181.703)"/></g></svg>