<svg xmlns="http://www.w3.org/2000/svg" width="15.037" height="19.41" viewBox="0 0 15.037 19.41"><defs><style>.a{fill:#192834;fill-rule:evenodd;}</style></defs><g transform="translate(-127.238 150.527)"><g transform="translate(127.238 -150.527)"><path class="a" d="M145.581-146.538h-.556v-.1c.152,0,.249-.03.181-.164-.1-.2.343-.191.408-.148C145.731-146.869,145.654-146.646,145.581-146.538Zm-.761.135h.674c-.075.113-.285.5-.42.5A1.377,1.377,0,0,1,144.82-146.4Zm2.19-.811a.4.4,0,0,1-.111.038c-.212.3-.084.265-.458.516a2.778,2.778,0,0,0,.133,1,.037.037,0,0,1,0,.03.038.038,0,0,1-.025.018c-.091.019-.221.053-.3.067a1.925,1.925,0,0,1,0,.513,2.643,2.643,0,0,1-1.045,1.1c-.262.052-.554-.18-1.012-.38-.126-.055-.549-.334-.771-.407-.184-.061-.368.386-.14.506.106.056.276.131.329.27a3.8,3.8,0,0,1-.352,2.317c-.155,0-.286-.144-.4-.106-.206.113-.076.742,0,.851,1.266,1.3,1.116,2.267,1.654,2.988.245,0,.084.26.27.565a1.155,1.155,0,0,1-.041.524v.393l-.041.123v.344c-.038.167-.079.392-.114.548-.075.33.215.586.041.9,0,.193,0,.155-.115.311a6.3,6.3,0,0,0,0,1.154,3.45,3.45,0,0,0,.753.876c.34.152.842.119.679.655-1,.306-1.632-.172-2.163-.18l-.025.091a2.254,2.254,0,0,1-.685-.108,8.221,8.221,0,0,1,.147-.909l.115-.18a11.622,11.622,0,0,0-.049-1.236c-.212-.156-.254-.631-.254-.892a3.052,3.052,0,0,1-.074-.7,1.3,1.3,0,0,1-.033-.458c.032-.105.151-.151.18-.237v-.295c.056-.31.039-.453-.147-.638-.466.006-.53.029-.786-.368-.079-.123-.731-1.151-.794-1.179-.542-.237-.434-.145-.671-.565a.554.554,0,0,0-.282.239,9.126,9.126,0,0,0-.635,1.562c-.055.184,0,.388-.082.54-.059.11-.253.146-.295.221-.19.342-.048.316-.409.557-.065.084-.067.21-.115.311l-.082.115c-.061.131.065.369.041.45a5.944,5.944,0,0,1-.229.63c-.166.393-.144.916-.311,1.158-.084.122-.287,0-.442.1-.009.085-.255.646-.3.8v.892c.046.15.173.294.135.484s-.745.2-1.128.144c-.256-.037-.333-.226-.329-.444.005-.258.526-1.932.494-2.043-.4-.445.106-.9.254-1.318.072-.2.028-.485.106-.671l.418-.761c.254-.24.141-.252.278-.467.119-.186.264-.312.18-.6-.169-.574.2-1.388.221-1.989-.065-.068-.285-.047-.312-.23a1.725,1.725,0,0,1,.263-1.1c.054-.028.116,0,.164-.033,0-.28-.278-1.837-.067-1.915.13-.049.43-.074.487-.1,0-.066-.049-.208-.1-.216-.093-.013-.283-.049-.435-.084-.465-.107-.035-1.942-.029-1.95.128-.169.722.059.794-.229.2-.253-.153-1.228.525-2.428.229-.405.667-.815,1.178-.641.171.058.067.3.368.041a1.09,1.09,0,0,0-.106-.409c-.5-1.493,1.2-2.3,2.382-1.449a1.205,1.205,0,0,1,.311.156c.065.338.4.939.065,1.334a1.242,1.242,0,0,0-.409.18,1.2,1.2,0,0,0,.041.344c.022.073.065.1-.045.147-.014.006-.008.051,0,.069a1.4,1.4,0,0,0,.758-.126h.221v-.279h.106v-.218h.106v.377h.276v.12h4.092v.212H149v-.777h.152v.632h.348v.361h1.083v-.107h.18v.047h.512v.3h-.512v.047h-.18v-.107H149.5v.108h-.477v-.073h-.2v.219H147.01" transform="translate(-136.238 150.527)"/></g></g></svg>