<svg xmlns="http://www.w3.org/2000/svg" width="21.556" height="22" viewBox="0 0 21.556 22"><defs><style>.a{fill:#fff;opacity:0.5;}</style></defs><path class="a" d="M139,137.424h10.384a10.406,10.406,0,0,1,.172,1.833,11.6,11.6,0,0,1-1.3,5.55,9.41,9.41,0,0,1-3.717,3.817A10.985,10.985,0,0,1,139,150a10.814,10.814,0,0,1-4.283-.867,10.781,10.781,0,0,1-5.851-5.851,11.016,11.016,0,0,1,0-8.565,10.781,10.781,0,0,1,5.851-5.851A10.813,10.813,0,0,1,139,128a10.423,10.423,0,0,1,7.376,2.879l-2.993,2.879a6.055,6.055,0,0,0-4.383-1.7,6.572,6.572,0,0,0-3.416.931,7.006,7.006,0,0,0,0,12.031,6.572,6.572,0,0,0,3.416.931,7.3,7.3,0,0,0,2.292-.344,5.78,5.78,0,0,0,1.719-.859,6.218,6.218,0,0,0,1.174-1.174,5.472,5.472,0,0,0,.738-1.246,5.263,5.263,0,0,0,.322-1.117H139Z" transform="translate(-128 -128)"/></svg>