<svg xmlns="http://www.w3.org/2000/svg" xmlns:xlink="http://www.w3.org/1999/xlink" width="83.514" height="19.711" viewBox="0 0 83.514 19.711"><defs><style>.a{fill:url(#a);}</style><linearGradient id="a" x1="0.5" x2="0.5" y2="1" gradientUnits="objectBoundingBox"><stop offset="0" stop-color="#e3e3e3"/><stop offset="1" stop-color="#878787"/></linearGradient></defs><g transform="translate(417.29 -172.752)"><path class="a" d="M-389.772,188.067l4.976-2.951,4.975,2.947-1.268-5.643,4.341-3.823-5.759-.536-2.295-5.309-2.293,5.311-5.759.542,4.346,3.817Z" transform="translate(9.708 0)"/><path class="a" d="M-379.78,186.9l3.833-2.274,3.834,2.272-.977-4.349,3.345-2.947-4.437-.412-1.768-4.093-1.768,4.1-4.436.418,3.348,2.941Z" transform="translate(20.916 2.46)"/><path class="a" d="M-380.143,185.1l3.248-1.926,3.249,1.925-.828-3.685,2.834-2.5-3.759-.349-1.5-3.468-1.5,3.47-3.759.354,2.837,2.492Z" transform="translate(37.864 7.362)"/><path class="a" d="M-380.143,185.1l3.248-1.926,3.249,1.925-.828-3.685,2.834-2.5-3.759-.349-1.5-3.468-1.5,3.47-3.759.354,2.837,2.492Z" transform="translate(-35.136 7.362)"/><path class="a" d="M-399.746,186.9l3.836-2.274,3.834,2.272-.979-4.349,3.344-2.947-4.437-.412-1.769-4.093-1.767,4.1-4.436.418,3.349,2.941Z" transform="translate(0 2.46)"/></g></svg>