<svg xmlns="http://www.w3.org/2000/svg" xmlns:xlink="http://www.w3.org/1999/xlink" width="153.005" height="153.004" viewBox="0 0 153.005 153.004"><defs><style>.a{fill:url(#a);}.b{fill:url(#b);}.c{fill:url(#c);}.d{fill:url(#d);}.e{fill:url(#e);}.f{opacity:0.6;mix-blend-mode:screen;isolation:isolate;fill:url(#f);}</style><linearGradient id="a" x1="0.03" y1="0.5" x2="1.027" y2="0.5" gradientUnits="objectBoundingBox"><stop offset="0" stop-color="#a8a8a8"/><stop offset="0.036" stop-color="#b4b4b4"/><stop offset="0.14" stop-color="#d3d3d3"/><stop offset="0.258" stop-color="#fff"/><stop offset="0.36" stop-color="#d3d3d3"/><stop offset="0.489" stop-color="#a8a8a8"/><stop offset="0.521" stop-color="#b4b4b4"/><stop offset="0.613" stop-color="#d3d3d3"/><stop offset="0.737" stop-color="#fff"/><stop offset="0.839" stop-color="#d3d3d3"/><stop offset="1" stop-color="#a8a8a8"/></linearGradient><linearGradient id="b" x1="0.133" y1="0.133" x2="0.805" y2="0.805" gradientUnits="objectBoundingBox"><stop offset="0" stop-color="#a8a29a"/><stop offset="0.069" stop-color="#c2bfbc"/><stop offset="0.14" stop-color="#dbdbdb"/><stop offset="0.258" stop-color="#fff"/><stop offset="0.36" stop-color="#dbdbdb"/><stop offset="0.489" stop-color="#a8a29a"/><stop offset="0.55" stop-color="#c2bfbc"/><stop offset="0.613" stop-color="#dbdbdb"/><stop offset="0.737" stop-color="#fff"/><stop offset="0.839" stop-color="#dbdbdb"/><stop offset="1" stop-color="#a8a29a"/></linearGradient><linearGradient id="c" x1="0.154" y1="0.846" x2="0.86" y2="0.139" xlink:href="#a"/><linearGradient id="d" x1="0.133" y1="0.133" x2="0.805" y2="0.805" gradientUnits="objectBoundingBox"><stop offset="0" stop-color="#0f1115"/><stop offset="0.14" stop-color="#1c2228"/><stop offset="0.258" stop-color="#232a32"/><stop offset="0.36" stop-color="#1c2228"/><stop offset="0.489" stop-color="#0f1115"/><stop offset="0.613" stop-color="#1c2228"/><stop offset="0.737" stop-color="#232a32"/><stop offset="0.839" stop-color="#1c2228"/><stop offset="1" stop-color="#0f1115"/></linearGradient><linearGradient id="e" x1="0.133" y1="0.133" x2="0.805" y2="0.805" gradientUnits="objectBoundingBox"><stop offset="0" stop-color="#161a1f"/><stop offset="0.14" stop-color="#2a323b"/><stop offset="0.258" stop-color="#343f4a"/><stop offset="0.36" stop-color="#2a323b"/><stop offset="0.489" stop-color="#161a1f"/><stop offset="0.613" stop-color="#2a323b"/><stop offset="0.737" stop-color="#343f4a"/><stop offset="0.839" stop-color="#2a323b"/><stop offset="1" stop-color="#161a1f"/></linearGradient><radialGradient id="f" cx="1.041" cy="0.632" r="1.138" gradientTransform="translate(-0.013) scale(1.026 1)" gradientUnits="objectBoundingBox"><stop offset="0" stop-color="#e8e8e8"/><stop offset="0.054" stop-color="#a6a6a6"/><stop offset="0.14" stop-color="#606060"/><stop offset="0.209" stop-color="#4b4b4b"/><stop offset="0.326" stop-color="#303030"/><stop offset="0.453" stop-color="#1a1a1a"/><stop offset="0.594" stop-color="#0b0b0b"/><stop offset="0.757" stop-color="#020202"/><stop offset="1"/></radialGradient></defs><g transform="translate(171.19 -22.152)"><path class="a" d="M-18.185,98.654a76.5,76.5,0,0,1-76.5,76.5,76.5,76.5,0,0,1-76.5-76.5,76.5,76.5,0,0,1,76.5-76.5A76.5,76.5,0,0,1-18.185,98.654Z" transform="translate(0 0)"/><path class="b" d="M-20.311,98.018a75.009,75.009,0,0,1-75.012,75.01,75.008,75.008,0,0,1-75.01-75.01,75.009,75.009,0,0,1,75.01-75.01A75.01,75.01,0,0,1-20.311,98.018Z" transform="translate(0.636 0.635)"/><path class="c" d="M-145.4,46.639a66.582,66.582,0,0,1,46.58-18.917,66.8,66.8,0,0,1,66.8,66.8,66.8,66.8,0,0,1-66.8,66.8,66.8,66.8,0,0,1-66.8-66.8A66.6,66.6,0,0,1-145.4,46.639" transform="translate(4.135 4.135)"/><path class="d" d="M-34.128,93.89A65.32,65.32,0,0,1-99.45,159.211,65.32,65.32,0,0,1-164.773,93.89,65.32,65.32,0,0,1-99.45,28.569,65.32,65.32,0,0,1-34.128,93.89Z" transform="translate(4.764 4.764)"/><path class="e" d="M-40.895,93.513a58.931,58.931,0,0,1-58.932,58.932,58.93,58.93,0,0,1-58.932-58.932,58.929,58.929,0,0,1,58.932-58.93A58.93,58.93,0,0,1-40.895,93.513Z" transform="translate(5.141 5.141)"/><path class="f" d="M-139.715,130.955A195.6,195.6,0,0,1-103.5,80.861,195.059,195.059,0,0,1-64.866,50.927a54.668,54.668,0,0,0-39.049-16.344,54.841,54.841,0,0,0-54.844,54.842A54.7,54.7,0,0,0-139.715,130.955Z" transform="translate(9.229 9.229)"/></g></svg>