<svg xmlns="http://www.w3.org/2000/svg" width="20" height="20" viewBox="0 0 20 20"><defs><style>.a{fill:none;}.b{fill:#fff;}</style></defs><g transform="translate(0.357 0.357)"><rect class="a" width="20" height="20" transform="translate(-0.357 -0.357)"/><g transform="translate(0.572 3.594)"><path class="b" d="M16.553,56.283a4.535,4.535,0,1,0-5.019,0,7.273,7.273,0,0,0-3.428,2.634.6.6,0,0,0,.495.953H19.486a.6.6,0,0,0,.494-.953,7.273,7.273,0,0,0-3.427-2.633Z" transform="translate(-7.996 -47.969)"/><path class="b" d="M155.021,58.937a7.273,7.273,0,0,0-3.428-2.633,4.535,4.535,0,0,0-3.74-8.142.6.6,0,0,0-.321.943,5.732,5.732,0,0,1,.29,6.417.6.6,0,0,0,.155.8,8.555,8.555,0,0,1,.661.545c.011.012.022.024.034.035a8.469,8.469,0,0,1,1.926,2.639.6.6,0,0,0,.548.349h3.38a.6.6,0,0,0,.494-.953Z" transform="translate(-136.874 -47.99)"/></g></g></svg>