<svg xmlns="http://www.w3.org/2000/svg" width="20" height="20" viewBox="0 0 20 20"><defs><style>.a{fill:none;}.b{fill:#f6f418;}</style></defs><g transform="translate(-0.385 -0.385)"><rect class="a" width="20" height="20" transform="translate(0.385 0.385)"/><path class="b" d="M32.41,24a8.409,8.409,0,1,0,8.409,8.409A8.409,8.409,0,0,0,32.41,24Zm.97,12.938a.97.97,0,1,1-.971-.971.97.97,0,0,1,.971.971ZM34.7,33.4a3.212,3.212,0,0,1-1.64.883v.064a.647.647,0,0,1-1.294,0V33.7a.647.647,0,0,1,.647-.647,1.941,1.941,0,1,0-1.941-1.941.647.647,0,0,1-1.294,0A3.234,3.234,0,1,1,34.7,33.4Z" transform="translate(-22.025 -22.024)"/></g></svg>