<svg xmlns="http://www.w3.org/2000/svg" width="20" height="20" viewBox="0 0 20 20"><defs><style>.a{fill:none;}.b{fill:#fff;}</style></defs><g transform="translate(0 -0.34)"><rect class="a" width="20" height="20" transform="translate(0 0.34)"/><g transform="translate(0.636 1.907)"><path class="b" d="M26.435,200H8.638a.636.636,0,1,0,0,1.271h17.8a.636.636,0,1,0,0-1.271Z" transform="translate(-8.002 -186.016)"/><path class="b" d="M24.638,35.442a.636.636,0,1,0,0,1.271H39.893a.636.636,0,0,0,0-1.271H38.622V30.357h1.271a.636.636,0,0,0,.353-1.164l-7.628-5.085a.636.636,0,0,0-.705,0l-7.628,5.085a.636.636,0,0,0,.353,1.164h1.271v5.085Zm8.9-4.449a.636.636,0,1,1,1.271,0v3.814a.636.636,0,0,1-1.271,0Zm-3.814,0a.636.636,0,1,1,1.271,0v3.814a.636.636,0,0,1-1.271,0Z" transform="translate(-22.731 -24)"/></g></g></svg>