<svg xmlns="http://www.w3.org/2000/svg" width="20" height="20" viewBox="0 0 20 20"><defs><style>.a{fill:none;}.b{fill:#fff;}</style></defs><g transform="translate(0 0.166)"><rect class="a" width="20" height="20" transform="translate(0 -0.166)"/><g transform="translate(2.495 0.497)"><circle class="b" cx="1" cy="1" r="1" transform="translate(6.505 9.338)"/><path class="b" d="M45.718,13.614H42.91V11.431a3.431,3.431,0,0,0-6.862,0v2.183H33.242a1.249,1.249,0,0,0-1.248,1.248v8.733a1.249,1.249,0,0,0,1.248,1.248H45.718a1.249,1.249,0,0,0,1.248-1.248V14.862A1.249,1.249,0,0,0,45.718,13.614ZM40.1,20.385v1.339a.624.624,0,1,1-1.248,0V20.385a2.183,2.183,0,1,1,1.248,0Zm1.559-6.77H37.3V11.431a2.183,2.183,0,1,1,4.367,0Z" transform="translate(-31.994 -8)"/></g></g></svg>