<svg xmlns="http://www.w3.org/2000/svg" width="20" height="20" viewBox="0 0 20 20"><defs><style>.a{fill:none;}.b{fill:#fff;}</style></defs><g transform="translate(-0.5 -0.845)"><rect class="a" width="20" height="20" transform="translate(0.5 0.845)"/><path class="b" d="M44.716,32H34.543A2.546,2.546,0,0,0,32,34.543V44.716a2.546,2.546,0,0,0,2.543,2.543H44.716a2.546,2.546,0,0,0,2.543-2.543V34.543A2.546,2.546,0,0,0,44.716,32ZM36.768,43.444a.954.954,0,1,1,.954-.954A.954.954,0,0,1,36.768,43.444Zm0-5.722a.954.954,0,1,1,.954-.954A.954.954,0,0,1,36.768,37.722Zm2.861,2.861a.954.954,0,1,1,.954-.954A.954.954,0,0,1,39.63,40.583Zm2.861,2.861a.954.954,0,1,1,.954-.954A.954.954,0,0,1,42.491,43.444Zm0-5.722a.954.954,0,1,1,.954-.954A.954.954,0,0,1,42.491,37.722Z" transform="translate(-29.399 -29.399)"/></g></svg>