<svg xmlns="http://www.w3.org/2000/svg" width="20" height="20" viewBox="0 0 20 20"><defs><style>.a{fill:none;}.b{fill:#fff;}</style></defs><g transform="translate(-0.125 -0.125)"><rect class="a" width="20" height="20" transform="translate(0.125 0.125)"/><path class="b" d="M34.356,32.185A.633.633,0,0,0,33.908,32h0l-5.047.016a.633.633,0,0,0-.486.23l-5.568,6.741-.658-.658a1.267,1.267,0,0,0-1.79,0l-1,1a1.266,1.266,0,0,0,0,1.79l1.652,1.652-2.368,2.368a1.267,1.267,0,0,0,0,1.79l.972.972a1.266,1.266,0,0,0,1.79,0l2.368-2.368,1.652,1.652a1.267,1.267,0,0,0,1.79,0l1-1a1.266,1.266,0,0,0,0-1.79l-.658-.658L34.3,38.167a.633.633,0,0,0,.23-.486l.016-5.047A.633.633,0,0,0,34.356,32.185Zm-1.1,5.2-6.6,5.456-1.028-1.028,4.3-4.3a.633.633,0,0,0-.895-.895l-4.3,4.3L23.7,39.885l5.456-6.6,4.113-.013Z" transform="translate(-16.822 -29.469)"/></g></svg>